<svg width="64" height="64" viewBox="0 0 64 64" fill="none" xmlns="http://www.w3.org/2000/svg">
<path d="M2.73892 50.7094L16.5376 57.9921C17.1377 58.3088 17.8574 58.2997 18.4492 57.9679L48.7474 40.9825C49.714 40.4406 50.0558 39.2161 49.5094 38.2519L42.9846 26.7375C42.4406 25.7775 41.2219 25.4394 40.2611 25.982L2.689 47.1992C1.31136 47.9771 1.33971 49.971 2.73892 50.7094Z" fill="#EBE9F4"/>
<path fill-rule="evenodd" clip-rule="evenodd" d="M19.3123 57.1116V26.0833L49.4764 9.25215V33.1833V34.2736V37.0022V40.2805L48.0157 41.0955L44.5963 43.0035L43.2566 43.751L25.3406 53.7479L21.9212 55.6558L20.5816 56.4033L19.3123 57.1116ZM20.7778 28.0773V26.838L48.1697 11.5536V12.7929L20.7778 28.0773ZM20.7778 29.9657V28.7264L48.1697 13.4421V14.6813L20.7778 29.9657ZM20.7778 31.8541V30.6148L48.1697 15.3305V16.5697L20.7778 31.8541ZM20.7778 33.7425V32.5032L48.1697 17.2189V18.4582L20.7778 33.7425ZM20.7778 35.6309V34.3916L48.1697 19.1073V20.3466L20.7778 35.6309ZM20.7778 37.5193V36.28L48.1697 20.9957V22.235L20.7778 37.5193ZM20.7778 39.4077V38.1685L48.1697 22.8841V24.1234L20.7778 39.4077ZM20.7778 41.2961V40.0569L48.1697 24.7725V26.0118L20.7778 41.2961ZM20.7778 43.1846V41.9453L48.1697 26.6609V27.9002L20.7778 43.1846ZM20.7778 45.073V43.8337L48.1697 28.5494V29.7886L20.7778 45.073ZM20.7778 46.9614V45.7221L48.1697 30.4378V31.677L20.7778 46.9614ZM20.7778 48.8498V47.6105L48.1697 32.3262V33.5655L20.7778 48.8498ZM20.7778 50.7382V49.4989L48.1697 34.2146V35.4539L20.7778 50.7382ZM20.7778 52.6266V51.3873L48.1697 36.103V37.3423L20.7778 52.6266ZM20.7778 54.515V53.2758L48.1697 37.9914V39.2307L20.7778 54.515Z" fill="#9E75E5"/>
<path d="M46.3012 7.48045L49.4764 9.25215L19.3123 26.0833L16.1371 24.3116L17.8672 23.3462L20.0073 24.5404L23.1872 22.7661L21.047 21.5719L42.2114 9.76247L44.1594 10.8494L47.3392 9.07511L45.3913 7.98817L46.3012 7.48045Z" fill="#513095"/>
<path d="M41.2051 9.20095V9.19313L44.3779 7.42275L45.3913 7.98817L47.3392 9.07511L44.1594 10.8494L42.2114 9.76247L41.2051 9.20095Z" fill="#9E75E5"/>
<path d="M17.0531 22.8919V22.8841L20.2259 21.1137L21.047 21.5719L23.1872 22.7661L20.0073 24.5404L17.8672 23.3462L17.0531 22.8919Z" fill="#9E75E5"/>
<path fill-rule="evenodd" clip-rule="evenodd" d="M17.0531 19.4614L20.2259 17.691V21.1137L17.0531 22.8841V19.4614ZM18.5802 21.3203C18.1421 21.5647 17.7869 21.3666 17.7869 20.8777C17.7869 20.3888 18.1421 19.7943 18.5802 19.5499C19.0182 19.3055 19.3734 19.5036 19.3734 19.9925C19.3734 20.4814 19.0182 21.0758 18.5802 21.3203Z" fill="#6743B4"/>
<path fill-rule="evenodd" clip-rule="evenodd" d="M41.2051 5.77039L44.3779 4V7.42275L41.2051 9.19313V5.77039ZM42.7322 7.62929C42.2941 7.87373 41.939 7.67557 41.939 7.1867C41.939 6.69782 42.2941 6.10334 42.7322 5.85891C43.1703 5.61447 43.5254 5.81262 43.5254 6.3015C43.5254 6.79038 43.1703 7.38485 42.7322 7.62929Z" fill="#6743B4"/>
<path d="M41.939 7.1867C41.939 7.67557 42.2941 7.87373 42.7322 7.62929C43.1703 7.38485 43.5254 6.79038 43.5254 6.3015C43.5254 5.81262 43.1703 5.61447 42.7322 5.85891C42.2941 6.10334 41.939 6.69782 41.939 7.1867Z" fill="#422791"/>
<path d="M17.7869 20.8777C17.7869 21.3666 18.1421 21.5647 18.5802 21.3203C19.0182 21.0758 19.3734 20.4814 19.3734 19.9925C19.3734 19.5036 19.0182 19.3055 18.5802 19.5499C18.1421 19.7943 17.7869 20.3888 17.7869 20.8777Z" fill="#422791"/>
<path d="M15.7708 28.1953C14.7928 28.1953 14 27.7197 14 27.133C14 26.5464 14.7928 26.0708 15.7708 26.0708C15.8964 26.0708 16.0189 26.0787 16.1371 26.0936C16.9393 26.1948 17.5415 26.6217 17.5415 27.133C17.5415 27.7197 16.7487 28.1953 15.7708 28.1953Z" fill="#513095"/>
<path d="M14 27.133C14 27.7197 14.7928 28.1953 15.7708 28.1953C16.7487 28.1953 17.5415 27.7197 17.5415 27.133V29.6152V30.9099V33.6227V50.5647V51.8594V54.6313V56.0494C17.5415 56.074 17.5401 56.0984 17.5374 56.1225C17.4747 56.6751 16.7077 57.1116 15.7708 57.1116C14.7928 57.1116 14 56.636 14 56.0494V27.133Z" fill="#9E75E5"/>
<path d="M19.3123 26.0833V57.1116L17.5374 56.1225C17.5401 56.0984 17.5415 56.074 17.5415 56.0494V54.6313L18.7017 53.9839V51.2121L17.5415 50.5647V33.6227L18.7017 32.9753V30.2625L17.5415 29.6152V27.133C17.5415 26.6217 16.9393 26.1948 16.1371 26.0936V24.3116L19.3123 26.0833Z" fill="#422791"/>
<path d="M17.5415 51.8594L18.7017 51.2121V53.9839L17.5415 54.6313V51.8594Z" fill="#6743B4"/>
<path d="M17.5415 30.9099L18.7017 30.2625V32.9753L17.5415 33.6227V30.9099Z" fill="#6743B4"/>
<path d="M18.7017 30.2625L17.5415 30.9099V29.6152L18.7017 30.2625Z" fill="#513095"/>
<path d="M18.7017 51.2121L17.5415 51.8594V50.5647L18.7017 51.2121Z" fill="#513095"/>
<path d="M20.7778 26.838V28.0773L48.1697 12.7929V11.5536L20.7778 26.838Z" fill="#422791"/>
<path d="M20.7778 28.7264V29.9657L48.1697 14.6813V13.4421L20.7778 28.7264Z" fill="#422791"/>
<path d="M20.7778 30.6148V31.8541L48.1697 16.5697V15.3305L20.7778 30.6148Z" fill="#422791"/>
<path d="M20.7778 32.5032V33.7425L48.1697 18.4582V17.2189L20.7778 32.5032Z" fill="#422791"/>
<path d="M20.7778 34.3916V35.6309L48.1697 20.3466V19.1073L20.7778 34.3916Z" fill="#422791"/>
<path d="M20.7778 36.28V37.5193L48.1697 22.235V20.9957L20.7778 36.28Z" fill="#422791"/>
<path d="M20.7778 38.1685V39.4077L48.1697 24.1234V22.8841L20.7778 38.1685Z" fill="#422791"/>
<path d="M20.7778 40.0569V41.2961L48.1697 26.0118V24.7725L20.7778 40.0569Z" fill="#422791"/>
<path d="M20.7778 41.9453V43.1846L48.1697 27.9002V26.6609L20.7778 41.9453Z" fill="#422791"/>
<path d="M20.7778 43.8337V45.073L48.1697 29.7886V28.5494L20.7778 43.8337Z" fill="#422791"/>
<path d="M20.7778 45.7221V46.9614L48.1697 31.677V30.4378L20.7778 45.7221Z" fill="#422791"/>
<path d="M20.7778 47.6105V48.8498L48.1697 33.5655V32.3262L20.7778 47.6105Z" fill="#422791"/>
<path d="M20.7778 49.4989V50.7382L48.1697 35.4539V34.2146L20.7778 49.4989Z" fill="#422791"/>
<path d="M20.7778 51.3873V52.6266L48.1697 37.3423V36.103L20.7778 51.3873Z" fill="#422791"/>
<path d="M20.7778 53.2758V54.515L48.1697 39.2307V37.9914L20.7778 53.2758Z" fill="#422791"/>
<path d="M51.125 42.8305L47.7056 44.7385L44.5963 43.0035L48.0157 41.0955L51.125 42.8305Z" fill="#6743B4"/>
<path d="M25.3406 53.7479L28.6546 55.597L25.2352 57.505L21.9212 55.6558L25.3406 53.7479Z" fill="#6743B4"/>
<path d="M21.9212 55.6558L25.2352 57.505V59L22.9084 57.7017L20.5816 56.4033L21.9212 55.6558Z" fill="#513095"/>
<path d="M25.2352 57.505L28.6546 55.597V57.092L25.2352 59V57.505Z" fill="#9E75E5"/>
<path d="M47.7056 44.7385V46.2335L43.2566 43.751L44.5963 43.0035L47.7056 44.7385Z" fill="#513095"/>
<path d="M47.7056 44.7385L51.125 42.8305V44.3255L47.7056 46.2335V44.7385Z" fill="#9E75E5"/>
<path d="M49.4764 34.2736L50.4533 33.7285V36.4571L49.4764 37.0022V34.2736Z" fill="#6743B4"/>
<path d="M50.4533 33.7285L49.4764 34.2736V33.1833L50.4533 33.7285Z" fill="#513095"/>
</svg>
