<svg width="64" height="64" viewBox="0 0 64 64" fill="none" xmlns="http://www.w3.org/2000/svg">
<path d="M50.0362 16.5361L36.2742 24.3875L30.7467 21.2339L25.2191 24.3875L14.255 18.1324L39.0266 4L49.9488 10.2312V11.16C49.6469 11.4302 49.4732 11.7469 49.4732 12.0856V13.7168L47.2838 14.9659L48.6075 15.7211L49.4732 16.215L50.0362 16.5361Z" fill="#9E75E5"/>
<path d="M14.255 18.1324L25.2191 24.3875V27.5519L14.255 21.2968V18.1563V18.1324Z" fill="#6743B4"/>
<path d="M30.7467 21.2339L36.2742 24.3875V27.5519L34.0848 26.3028V24.6955C34.0848 23.7055 32.6005 22.9029 30.7694 22.9029L30.7467 22.9029V21.2339Z" fill="#6743B4"/>
<path d="M61.0002 16.5361V22.8411L58.2706 24.3984L30.7467 40.101V33.7961L61.0002 16.5361Z" fill="#6743B4"/>
<path d="M36.2742 24.3875L50.0362 16.5361L50.0096 17.5141L49.9854 18.4061L49.9488 19.7504L36.2742 27.5519V24.3875Z" fill="#6743B4"/>
<path d="M48.6075 15.7211L47.2838 14.9659L49.4732 13.7168V14.932C49.0981 15.1602 48.8018 15.4275 48.6075 15.7211Z" fill="#6743B4"/>
<path d="M25.2191 24.3875L30.7467 21.2339V22.9029C28.9261 22.9096 27.454 23.7096 27.454 24.6955V26.2768L25.2191 27.5519V24.3875Z" fill="#6743B4"/>
<path d="M58.2706 43.2973L30.7467 59V43.2546L41.1155 37.339L45.2821 39.7161L42.14 41.5087L48.5975 45.0938L46.5332 40.7669L48.3751 39.7161L45.5764 34.7941L58.2706 27.5519V43.2973Z" fill="#6743B4"/>
<path d="M30.7467 59L11.5026 48.0211V36.9789V32.2757L30.7467 43.2546V59Z" fill="#513095"/>
<path d="M30.7467 40.101L58.2706 24.3984V27.5519L45.5764 34.7941L45.2821 34.2765L40.5148 36.9963L41.1155 37.339L30.7467 43.2546V40.101Z" fill="#513095"/>
<path d="M11.5026 29.1222L30.7467 40.101V43.2546L11.5026 32.2757V29.1222Z" fill="#513095"/>
<path d="M36.2742 27.5519L49.9488 19.7504L49.9854 18.4061C50.7499 18.7442 51.7256 18.9469 52.7886 18.9469C55.2415 18.9469 57.23 17.8675 57.23 16.5361C57.23 15.9202 56.8043 15.3581 56.104 14.932V13.7428L61.0002 16.5361L30.7467 33.7961L8.79396 21.2719L14.255 18.1563V21.2968L25.2191 27.5519L27.454 26.2768V27.5419C26.7537 27.968 26.3281 28.5301 26.3281 29.146C26.3281 30.4774 28.3165 31.5568 30.7694 31.5568C33.2223 31.5568 35.2108 30.4774 35.2108 29.146C35.2108 28.5301 34.7852 27.968 34.0848 27.5419V26.3028L36.2742 27.5519Z" fill="#9E75E5"/>
<path d="M30.7694 22.9029C32.6005 22.9029 34.0848 23.7055 34.0848 24.6955C34.0848 25.1374 33.7891 25.5419 33.2988 25.8544C32.6907 26.2421 31.7832 26.4881 30.7694 26.4881C29.7437 26.4881 28.8268 26.2362 28.2186 25.8406C27.7412 25.5301 27.454 25.1309 27.454 24.6955C27.454 23.7096 28.9261 22.9096 30.7467 22.9029L30.7694 22.9029Z" fill="#EB4974"/>
<path d="M30.7694 30.9386C28.9384 30.9386 27.454 30.1361 27.454 29.146V27.7114V27.5419V26.2768V24.6955C27.454 25.1309 27.7412 25.5301 28.2186 25.8406C28.8268 26.2362 29.7437 26.4881 30.7694 26.4881C31.7832 26.4881 32.6907 26.2421 33.2988 25.8544C33.7891 25.5419 34.0848 25.1374 34.0848 24.6955V26.3028V27.5419V27.7244V29.146C34.0848 30.1361 32.6005 30.9386 30.7694 30.9386Z" fill="#E62D51"/>
<path d="M30.7694 31.5568C28.3165 31.5568 26.3281 30.4774 26.3281 29.146C26.3281 28.5301 26.7537 27.968 27.454 27.5419V27.7114V29.146C27.454 30.1361 28.9384 30.9386 30.7694 30.9386C32.6005 30.9386 34.0848 30.1361 34.0848 29.146V27.7244V27.5419C34.7852 27.968 35.2108 28.5301 35.2108 29.146C35.2108 30.4774 33.2223 31.5568 30.7694 31.5568Z" fill="#422791"/>
<path d="M52.7886 13.8782C50.9576 13.8782 49.4732 13.0756 49.4732 12.0856C49.4732 11.7469 49.6469 11.4302 49.9488 11.16C50.1553 10.9752 50.4217 10.8122 50.7335 10.6789C51.2984 10.4372 52.0124 10.293 52.7886 10.293C54.6196 10.293 56.104 11.0956 56.104 12.0856C56.104 13.0756 54.6196 13.8782 52.7886 13.8782Z" fill="#2998FF"/>
<path d="M56.104 16.5361C56.104 17.5262 54.6196 18.3287 52.7886 18.3287C51.6249 18.3287 50.6012 18.0045 50.0096 17.5141L50.0362 16.5361L49.4732 16.215V14.932V13.7168V12.0856C49.4732 13.0756 50.9576 13.8782 52.7886 13.8782C54.6196 13.8782 56.104 13.0756 56.104 12.0856V13.7428V14.932V16.5361Z" fill="#3369AC"/>
<path d="M52.7886 18.3287C54.6196 18.3287 56.104 17.5262 56.104 16.5361V14.932C56.8043 15.3581 57.23 15.9202 57.23 16.5361C57.23 17.8675 55.2415 18.9469 52.7886 18.9469C51.7256 18.9469 50.7499 18.7442 49.9854 18.4061L50.0096 17.5141C50.6012 18.0045 51.6249 18.3287 52.7886 18.3287Z" fill="#422791"/>
<path d="M40.5148 36.9963L45.2821 34.2765L45.5764 34.7941L48.3751 39.7161L46.5332 40.7669L48.5975 45.0938L42.14 41.5087L45.2821 39.7161L41.1155 37.339L40.5148 36.9963Z" fill="#FFCD00"/>
<path d="M49.4732 16.215L48.6075 15.7211C48.8018 15.4275 49.0981 15.1602 49.4732 14.932V16.215Z" fill="#2D1270"/>
<path d="M11.5026 48.0211L30.7467 59H23.3094L1.87524 46.625H1.93977V42.5L11.5026 36.9789V48.0211Z" fill="#EAE9F1"/>
<path d="M8.75024 27.5519V21.2968L8.79396 21.2719L30.7467 33.7961V40.101L11.5026 29.1222L8.75024 27.5519Z" fill="#6743B4"/>
</svg>
