<svg width="48" height="59" viewBox="0 0 48 59" fill="none" xmlns="http://www.w3.org/2000/svg">
<g clip-path="url(#clip0_1_289)">
<path d="M29.5091 22.5716L28.2052 19.9374C26.0116 14.6736 20.664 11.687 15.2724 12.2729L15.2636 12.2597C14.5104 10.436 12.4225 9.57707 10.6032 10.3347C8.7884 11.0924 7.92945 13.1847 8.68269 15.0083L8.69149 15.0215C4.48481 18.4486 2.84178 24.3555 5.03102 29.6194L6.02653 32.8086C6.93834 35.7202 6.70488 38.8785 5.379 41.6316L5.32174 41.7505C6.42737 40.3894 8.88091 38.5041 12.2242 36.566C14.4311 35.2841 17.0212 33.9891 19.8712 32.7953C22.752 31.5928 25.5491 30.6458 28.0555 29.963C31.8569 28.9234 34.98 28.4962 36.6979 28.6988C33.5704 27.7297 30.9715 25.514 29.5135 22.576V22.5672L29.5091 22.5716ZM11.3697 12.1716C12.0436 11.8897 12.8057 12.1143 13.2286 12.6649C12.7396 12.8015 12.2595 12.9689 11.7837 13.1715C11.308 13.3741 10.8455 13.5988 10.405 13.8498C10.3081 13.1583 10.6869 12.4579 11.3609 12.176L11.3697 12.1716Z" fill="#FFCD00"/>
<path d="M16.968 14.079C18.523 14.2376 21.3994 14.819 23.7031 16.9202" stroke="white" stroke-width="0.400847" stroke-miterlimit="10" stroke-linecap="round"/>
<path d="M29.1346 41.1735C29.4782 40.9973 29.8614 40.8079 30.1918 40.6405C30.5265 40.4643 30.8481 40.2969 31.1652 40.1296C31.5837 39.9049 31.989 39.6803 32.3854 39.4512C32.6805 39.2794 32.9669 39.112 33.2444 38.949C33.3369 38.8962 33.4338 38.8345 33.5219 38.7861C33.6364 38.7156 33.7509 38.6495 33.8611 38.579C34.1958 38.372 34.513 38.1694 34.8169 37.9712C35.3807 37.5967 35.8961 37.2355 36.3542 36.8831C36.6141 36.6805 36.8564 36.4867 37.081 36.2973C37.1956 36.2004 37.3013 36.1079 37.4026 36.0154C37.5039 35.9185 37.6052 35.826 37.6933 35.7423C37.7374 35.6938 37.7814 35.6542 37.8255 35.6101C37.9973 35.4339 38.1514 35.2665 38.2748 35.0992L38.266 35.108C38.7329 34.5221 38.9135 34.0199 38.7549 33.6411C38.614 33.2975 38.1955 33.0773 37.5568 32.9804C37.5127 32.9716 37.4599 32.9672 37.407 32.9584C37.3497 32.9496 37.2837 32.9452 37.222 32.9407C37.1647 32.9407 37.1075 32.9319 37.0502 32.9319C36.9973 32.9231 36.9445 32.9231 36.8872 32.9231C36.7331 32.9231 36.5745 32.9231 36.4027 32.9231C36.3058 32.9231 36.2001 32.9319 36.0943 32.9319C35.9886 32.9407 35.8741 32.9452 35.7684 32.954C35.6627 32.9628 35.5437 32.976 35.4292 32.9892C35.2794 33.0024 35.1253 33.0244 34.9623 33.0421C34.861 33.0509 34.7597 33.0685 34.6539 33.0817C34.4425 33.1125 34.2267 33.1434 33.9976 33.183C33.8831 33.205 33.7685 33.2227 33.654 33.2447C33.425 33.2887 33.1915 33.3328 32.9492 33.3856C32.8259 33.4077 32.7026 33.4341 32.5792 33.4649C32.4206 33.4958 32.2665 33.5354 32.1035 33.5706C31.9449 33.6103 31.7819 33.6499 31.619 33.6896C31.293 33.7689 30.9582 33.857 30.6146 33.9495C30.2006 34.0596 29.7777 34.1785 29.346 34.3063C28.3461 34.6014 27.2889 34.9406 26.2009 35.3282C24.7781 35.8216 23.2981 36.3942 21.7784 37.0241C21.3863 37.1871 20.9987 37.3545 20.6155 37.5174C20.1662 37.7201 19.7169 37.9183 19.2808 38.1165C19.1002 38.2002 18.9284 38.2751 18.7522 38.3588C18.2941 38.5746 17.8404 38.7905 17.3955 39.0063C17.3867 39.0151 17.3823 39.0151 17.3779 39.0151C17.2281 39.09 17.0828 39.1605 16.9374 39.2354C16.7876 39.3102 16.6423 39.3807 16.4925 39.4556C16.3471 39.5305 16.1974 39.601 16.0564 39.6803C15.7657 39.8256 15.4794 39.9754 15.2063 40.1296C15.0609 40.2 14.9288 40.2749 14.7922 40.3498C14.7614 40.363 14.7305 40.385 14.6953 40.3983C14.0698 40.7418 13.4839 41.0766 12.9245 41.407C12.7351 41.5215 12.5545 41.6272 12.3783 41.7329C12.2021 41.8475 12.0259 41.9532 11.8585 42.0589C11.6867 42.1734 11.5194 42.2792 11.3608 42.3849C11.189 42.4994 11.0216 42.6139 10.8586 42.724C10.5635 42.9267 10.286 43.1249 10.0217 43.3187C9.92478 43.3892 9.83227 43.4641 9.74418 43.5301C9.57679 43.6579 9.41381 43.79 9.26404 43.9134C8.85879 44.2526 8.5064 44.5741 8.22889 44.8736C8.11876 44.9882 8.02626 45.1027 7.93816 45.2084C7.7884 45.3934 7.66506 45.5652 7.57696 45.7326C7.53732 45.7943 7.51089 45.8603 7.48005 45.922C7.44041 45.9969 7.41398 46.0674 7.40076 46.1379C7.38755 46.1863 7.37874 46.2259 7.36993 46.27C7.33469 46.433 7.3479 46.5827 7.40957 46.7193C7.99543 48.1157 13.0082 47.4109 19.4482 45.2084C21.0207 44.6666 22.6902 44.0367 24.3905 43.3275C24.7825 43.1645 25.1658 43.0016 25.549 42.8342C25.8045 42.7196 26.0556 42.6139 26.3022 42.4994C26.6766 42.332 27.0467 42.1646 27.4079 41.9884C27.6545 41.8739 27.8924 41.7638 28.1259 41.6492C28.465 41.4863 28.813 41.3145 29.1346 41.1603V41.1735Z" fill="#FF9900"/>
<path d="M29.1306 39.9357C27.5625 40.733 25.7741 41.5567 23.8579 42.3584C21.9903 43.138 20.1931 43.812 18.5588 44.3626C14.2288 45.8162 11.0397 46.3712 10.7225 45.6092C10.4009 44.8427 13.0659 42.9486 17.1801 40.8783C18.7086 40.1075 20.4309 39.3102 22.281 38.5437C24.1707 37.7508 25.9855 37.0725 27.6374 36.5175C31.9409 35.0771 35.1081 34.5264 35.4252 35.2885C35.738 36.0461 33.1479 37.8962 29.1306 39.9357Z" fill="#964504"/>
<path d="M24.1353 48.1114C27.5119 48.1114 30.2493 45.374 30.2493 41.9973C30.2493 39.7328 29.0181 37.7558 27.1886 36.6992C23.8147 34.7506 19.2891 36.5644 18.2405 40.369C18.0976 40.8875 18.0212 41.4335 18.0212 41.9973C18.0212 45.374 20.7586 48.1114 24.1353 48.1114Z" fill="#FFCD00"/>
<path d="M21.7784 37.0241C23.2981 36.3942 24.7781 35.8215 26.2009 35.3282L27.6375 36.5175C25.9857 37.0725 24.1708 37.7509 22.2811 38.5438C20.4311 39.3102 18.7087 40.1075 17.1802 40.8784L14.6953 40.3983C14.7306 40.385 14.7614 40.363 14.7922 40.3498C14.9288 40.2749 15.0609 40.2 15.2063 40.1296C15.4794 39.9754 15.7657 39.8256 16.0564 39.6802C16.1974 39.601 16.3472 39.5305 16.4925 39.4556C16.6423 39.3807 16.7876 39.3102 16.9374 39.2354C17.0828 39.1605 17.2281 39.09 17.3779 39.0151C17.3823 39.0151 17.3867 39.0151 17.3955 39.0063C17.8404 38.7905 18.2941 38.5746 18.7522 38.3588C18.9284 38.2751 19.1002 38.2002 19.2808 38.1165C19.7169 37.9183 20.1662 37.7201 20.6155 37.5174C20.9987 37.3545 21.3864 37.1871 21.7784 37.0241Z" fill="#FF9900"/>
<path d="M38.7506 33.6368C38.6053 33.2933 38.1912 33.0774 37.5525 32.9761C37.504 32.9673 37.4556 32.9585 37.4027 32.9541C37.3455 32.9453 37.2794 32.9409 37.2177 32.9365C37.1605 32.9365 37.1032 32.9276 37.0459 32.9276C36.9931 32.9188 36.9358 32.9188 36.8829 32.9188H36.3984C36.3015 32.9188 36.1958 32.9276 36.0901 32.9276C35.8786 32.9409 35.654 32.9585 35.4205 32.9805C34.588 33.0642 33.6321 33.2272 32.5661 33.4606C31.9406 33.6016 31.2887 33.7602 30.6015 33.9452C30.1875 34.0597 29.7646 34.1786 29.3329 34.302C28.333 34.5971 27.2758 34.9363 26.1878 35.3239C24.765 35.8173 23.285 36.3899 21.7653 37.0198C21.3733 37.1828 20.99 37.3458 20.6024 37.5132C20.1487 37.7158 19.7038 37.914 19.2677 38.1122C19.0915 38.1959 18.9153 38.2708 18.7391 38.3545C18.281 38.5703 17.8229 38.7862 17.3824 39.002C17.3736 39.002 17.3692 39.0108 17.3648 39.0108C17.215 39.0857 17.0697 39.1562 16.9243 39.2311C16.7745 39.306 16.6292 39.3764 16.4794 39.4513C16.3296 39.5262 16.1843 39.5967 16.0433 39.676C15.7526 39.8213 15.4663 39.9711 15.1932 40.1253C15.0522 40.1957 14.9157 40.2706 14.7791 40.3455C14.7527 40.3587 14.7174 40.3808 14.6822 40.394C14.0567 40.7376 13.4708 41.0723 12.9114 41.4027C12.722 41.5172 12.5414 41.6229 12.3652 41.7287C12.189 41.8432 12.0128 41.9489 11.8454 42.0546C11.6736 42.1691 11.5063 42.2749 11.3477 42.3806C11.1759 42.4951 11.0085 42.6096 10.8455 42.7198C10.5504 42.9224 10.2685 43.1206 10.0086 43.3144C9.91168 43.3849 9.81918 43.4598 9.73108 43.5259C9.55929 43.6536 9.40071 43.7857 9.25095 43.9091C8.84569 44.2527 8.4933 44.5698 8.21579 44.8738C8.10567 44.9883 8.01317 45.1028 7.92507 45.2085C7.7753 45.3935 7.65196 45.5653 7.56387 45.7327C7.52422 45.7988 7.49339 45.8605 7.46696 45.9221C7.42731 46.0014 7.40088 46.0675 7.38767 46.138C7.37445 46.1864 7.36564 46.2305 7.35683 46.2701C7.326 46.4331 7.33922 46.5873 7.39648 46.7194L5.32617 41.7287C6.4318 40.3631 8.88534 38.4822 12.2243 36.5441C14.4311 35.2622 17.0212 33.9672 19.8712 32.7735C22.7476 31.5709 25.5491 30.6239 28.0555 29.9411C31.8525 28.9016 34.9844 28.4743 36.6979 28.6769L38.755 33.6192H38.7462L38.7506 33.6368Z" fill="#FFBF00"/>
</g>
<defs>
<clipPath id="clip0_1_289">
<rect width="34.8605" height="38.1685" fill="white" transform="translate(4 10)"/>
</clipPath>
</defs>
</svg>
