<svg width="48" height="58" viewBox="0 0 48 58" fill="none" xmlns="http://www.w3.org/2000/svg">
<path fill-rule="evenodd" clip-rule="evenodd" d="M17.4639 23.2743C22.0859 27.3168 23.9567 32.0959 24.3144 33.9802C16.9852 30.3487 11.3562 24.9872 9.4579 22.7604C9.25981 21.1845 9.37536 20.2195 9.4579 19.934C12.1651 19.8558 15.9232 22.1282 17.4639 23.2743ZM28.1935 36.6352L36.3646 39.5472L35.3261 39.8665C34.5359 40.1095 33.7198 40.2484 32.8968 40.2801C32.2569 40.3046 31.6284 40.0978 31.1167 39.6943L30.782 39.4303C30.1588 38.9389 29.5907 38.3751 29.0885 37.7497L28.1935 36.6352Z" fill="#FDC83E"/>
<path fill-rule="evenodd" clip-rule="evenodd" d="M27.1678 45.1756C25.6893 44.5243 24.332 42.6553 24.1362 41.0009C24.0339 40.1357 24.2695 39.5006 24.7291 39.1847C24.7808 39.1491 24.8354 39.1176 24.8927 39.0902C25.2993 38.8961 25.8408 38.9124 26.4589 39.1847C27.9374 39.836 29.2947 41.705 29.4904 43.3593C29.5928 44.2245 29.3572 44.8597 28.8976 45.1756C28.4785 45.4637 27.873 45.4862 27.1678 45.1756ZM26.6674 40.9467C26.0586 40.6786 25.6304 41.0134 25.711 41.6946C25.7916 42.3758 26.3505 43.1454 26.9593 43.4136C27.5681 43.6817 27.9963 43.3469 27.9157 42.6657C27.8351 41.9845 27.2762 41.2149 26.6674 40.9467Z" fill="black"/>
<path fill-rule="evenodd" clip-rule="evenodd" d="M6.03795 32.7567C4.55943 32.1055 3.20218 30.2364 3.00643 28.5821C2.90405 27.7169 3.13966 27.0817 3.59923 26.7658C3.65101 26.7303 3.70562 26.6987 3.76292 26.6714C4.16948 26.4773 4.71095 26.4936 5.32909 26.7658C6.80761 27.4171 8.16487 29.2861 8.36061 30.9405C8.45014 31.6971 8.2812 32.2778 7.93003 32.6229L7.76781 32.7567C7.34866 33.0448 6.7432 33.0674 6.03795 32.7567ZM5.53759 28.5279C4.92878 28.2597 4.50059 28.5946 4.58119 29.2758C4.66179 29.957 5.22066 30.7266 5.82947 30.9947C6.43827 31.2629 6.86646 30.9281 6.78586 30.2469C6.70526 29.5657 6.14639 28.7961 5.53759 28.5279Z" fill="black"/>
<path d="M24.3144 33.9802C23.9567 32.0959 22.0859 27.3168 17.4639 23.2743C15.9232 22.1282 12.1651 19.8558 9.4579 19.934C9.37536 20.2195 9.25981 21.1845 9.4579 22.7604C11.3562 24.9872 16.9852 30.3487 24.3144 33.9802Z" fill="black"/>
<path d="M26.4603 33.9802L20.8478 25.3298C22.865 24.3306 27.5983 21.7497 30.394 19.4201C30.6455 19.6039 30.8758 19.7761 31.0823 19.934L34.2903 22.8106L36.1083 24.3877L38.428 26.4432C39.0883 27.5566 38.6756 29.3552 34.1361 32.3529C30.5045 34.751 27.5057 34.437 26.4603 33.9802Z" fill="black"/>
<path d="M16.0608 12.9966C14.33 13.8584 9.89321 16.2864 7.3595 19.7528C7.31196 19.8178 7.14671 19.9555 6.95892 20.0065C6.944 20.0106 6.92893 20.0141 6.91378 20.017C6.31355 20.1312 5.2044 20.1567 4.30696 19.6771C8.68099 15.631 13.4466 13.78 16.0608 12.9966Z" fill="black"/>
<path d="M2.60742 22.7604C2.21125 21.1159 3.21268 20.3623 3.76292 20.191C4.20311 20.5621 5.06699 21.5956 5.00097 22.7604C4.6158 22.9888 3.59785 23.3085 2.60742 22.7604Z" fill="#ED264F"/>
<path d="M34.6841 22.0972C34.8682 21.8211 35.2326 21.7384 35.4841 21.9482C36.4166 22.7259 36.3034 23.6633 36.1083 24.3877L34.2903 22.8106C34.3771 22.5831 34.5329 22.3239 34.6841 22.0972Z" fill="#FDC83E"/>
<path d="M36.3646 39.5472L28.1935 36.6352L29.0885 37.7497C29.5907 38.3751 30.1588 38.9389 30.782 39.4303L31.1167 39.6943C31.6284 40.0978 32.2569 40.3046 32.8968 40.2801C33.7198 40.2484 34.5359 40.1095 35.3261 39.8665L36.3646 39.5472Z" fill="white"/>
<path d="M29.4904 43.3593C29.2947 41.705 27.9374 39.836 26.4589 39.1847C25.8408 38.9124 25.2993 38.8961 24.8927 39.0902C24.8354 39.1176 24.7808 39.1491 24.7291 39.1847C24.9052 38.9547 25.4486 38.4286 26.2127 38.1645C28.1015 38.8074 30.2326 41.2459 30.4083 43.9153C30.0012 44.5319 29.2316 45.0124 28.8976 45.1756C29.3572 44.8597 29.5928 44.2245 29.4904 43.3593Z" fill="black"/>
<path d="M25.711 41.6946C25.6304 41.0134 26.0586 40.6786 26.6674 40.9467C27.2762 41.2149 27.8351 41.9845 27.9157 42.6657C27.9963 43.3469 27.5681 43.6817 26.9593 43.4136C26.3505 43.1454 25.7916 42.3758 25.711 41.6946Z" fill="white"/>
<path d="M4.58119 29.2758C4.50059 28.5946 4.92878 28.2597 5.53759 28.5279C6.14639 28.7961 6.70526 29.5657 6.78586 30.2469C6.86646 30.9281 6.43827 31.2629 5.82947 30.9947C5.22066 30.7266 4.66179 29.957 4.58119 29.2758Z" fill="white"/>
<path d="M8.36061 30.9405C8.16487 29.2861 6.80761 27.4171 5.32909 26.7658C4.71095 26.4936 4.16948 26.4773 3.76292 26.6714C3.70562 26.6987 3.65101 26.7303 3.59923 26.7658C3.76384 26.5062 4.30766 25.904 5.16603 25.5727C7.10278 26.2703 9.15763 29.056 8.88015 31.839L7.93003 32.6229C8.2812 32.2778 8.45014 31.6971 8.36061 30.9405Z" fill="black"/>
<path d="M43.05 35.0936L42.8024 29.8482C43.3488 30.3863 43.871 30.9672 44.3268 31.582C44.5115 32.4506 44.3195 33.3602 43.8025 34.066L43.524 34.4463L43.05 35.0936Z" fill="white"/>
<path d="M2.98312 28.242C2.79054 27.2714 2.64044 25.5525 4.09307 25.4154C4.43531 25.3832 4.79855 25.4403 5.16603 25.5727C4.30766 25.904 3.76384 26.5062 3.59923 26.7658C3.20216 27.0388 2.97229 27.55 2.98312 28.242Z" fill="#A0770D"/>
<path d="M23.9017 41.3458C23.6541 40.2895 23.2909 38.1426 25.1397 38.0056C25.4767 37.9806 25.84 38.0376 26.2127 38.1645C25.4486 38.4286 24.9052 38.9547 24.7291 39.1847C24.2695 39.5006 24.0339 40.1357 24.1362 41.0009L23.9017 41.3458Z" fill="#A0770D"/>
<path fill-rule="evenodd" clip-rule="evenodd" d="M43.524 34.4463C43.388 34.662 43.2309 34.8789 43.05 35.0936C41.5945 36.9631 37.9866 38.8417 36.3646 39.5472L28.1935 36.6352C27.8804 36.158 27.0953 34.9589 26.4603 33.9802C27.5057 34.437 30.5045 34.751 34.1361 32.3529C38.6756 29.3552 39.0883 27.5566 38.428 26.4432C39.3704 27.0486 41.1911 28.2616 42.8024 29.8482L43.05 35.0936L43.524 34.4463Z" fill="#FDC83E"/>
<path fill-rule="evenodd" clip-rule="evenodd" d="M17.4639 23.2743C22.0859 27.3168 23.9567 32.0959 24.3144 33.9802C16.9852 30.3487 11.3562 24.9872 9.4579 22.7604C9.25981 21.1845 9.37536 20.2195 9.4579 19.934C12.1651 19.8558 15.9232 22.1282 17.4639 23.2743Z" fill="black"/>
<path d="M16.0608 12.9966C16.7968 12.6248 17.6463 12.5743 18.4267 12.8277C22.6629 14.2033 27.7223 17.4675 30.394 19.4201C27.5983 21.7497 22.865 24.3306 20.8478 25.3298C18.9758 23.2767 14.1011 19.1704 9.57874 19.1704C9.00513 19.146 7.84122 19.2372 7.3595 19.7528C9.89321 16.2864 14.33 13.8584 16.0608 12.9966Z" fill="#FDC83E"/>
<path fill-rule="evenodd" clip-rule="evenodd" d="M2.98312 28.242C1.86063 26.255 2.22225 23.731 2.60742 22.7604C3.59785 23.3085 4.6158 22.9888 5.00097 22.7604C5.06699 21.5956 4.20311 20.5621 3.76292 20.191C3.94422 20.0161 4.12561 19.8448 4.30696 19.6771C5.2044 20.1567 6.31355 20.1312 6.91378 20.017C6.92893 20.0141 6.944 20.0106 6.95892 20.0065C7.10044 19.9683 7.2716 19.873 7.3595 19.7528C7.84122 19.2372 9.00513 19.146 9.57874 19.1704C14.1011 19.1704 18.9758 23.2767 20.8478 25.3298L26.4603 33.9802C27.0953 34.9589 27.8804 36.158 28.1935 36.6352L29.0885 37.7497C29.5907 38.3751 30.1588 38.9389 30.782 39.4303L31.1167 39.6943C31.6284 40.0978 32.2569 40.3046 32.8968 40.2801C33.7198 40.2484 34.5359 40.1095 35.3261 39.8665L36.3646 39.5472C37.9866 38.8417 41.5945 36.9631 43.05 35.0936C43.2309 34.8789 43.388 34.662 43.524 34.4463L43.8025 34.066C44.3195 33.3602 44.5115 32.4506 44.3268 31.582C44.4273 31.7176 44.5246 31.8548 44.6181 31.9935C44.9018 32.414 45.1515 32.8488 45.3547 33.295C45.1957 34.9663 42.7602 38.9367 34.3629 41.738C34.0494 41.8426 33.9458 42.2125 34.2043 42.4259C34.2829 42.4908 34.3714 42.5604 34.4704 42.6346C35.1543 43.1472 36.0331 43.2358 36.8334 42.982C35.9019 43.2947 34.7217 43.5539 33.2404 43.6357C31.8288 43.7135 31.5715 45.0617 32.2714 45.4832C31.4364 45.4402 30.7561 45.3101 30.3395 45.1756C30.4156 44.7538 30.4358 44.3317 30.4083 43.9153C30.2326 41.2459 28.1015 38.8074 26.2127 38.1645C25.84 38.0376 25.4767 37.9806 25.1397 38.0056C23.2909 38.1426 23.6541 40.2895 23.9017 41.3458L8.88015 31.839C9.15763 29.056 7.10278 26.2703 5.16603 25.5727C4.79855 25.4403 4.43531 25.3832 4.09307 25.4154C2.64044 25.5525 2.79054 27.2714 2.98312 28.242ZM17.4639 23.2743C22.0859 27.3168 23.9567 32.0959 24.3144 33.9802C16.9852 30.3487 11.3562 24.9872 9.4579 22.7604C9.25981 21.1845 9.37536 20.2195 9.4579 19.934C12.1651 19.8558 15.9232 22.1282 17.4639 23.2743Z" fill="#CD9F2E"/>
<path d="M44.6181 39.8042C43.7377 40.4608 41.2176 42.2366 38.1803 44.0865C36.1652 45.3139 33.9175 45.568 32.2714 45.4832C31.5715 45.0617 31.8288 43.7135 33.2404 43.6357C34.7217 43.5539 35.9019 43.2947 36.8334 42.982C36.8777 42.968 36.9218 42.9529 36.9655 42.9368C37.895 42.6117 38.5663 42.2368 39.0358 41.9454C40.8266 40.9567 42.7822 39.7215 44.2234 38.4456C45.6447 37.2057 45.9476 35.8018 45.9215 35.2548C45.98 35.6546 46.0037 36.0291 45.9995 36.3783C45.9774 38.2613 45.1477 39.4085 44.6181 39.8042Z" fill="#FDC83E"/>
<path d="M34.4704 42.6346C34.3714 42.5604 34.2829 42.4908 34.2043 42.4259C33.9458 42.2125 34.0494 41.8426 34.3629 41.738C42.7602 38.9367 45.1957 34.9663 45.3547 33.295C45.533 33.6864 45.6755 34.0868 45.7736 34.4941C45.837 34.757 45.8857 35.0106 45.9215 35.2548C45.9476 35.8018 45.6447 37.2057 44.2234 38.4456C42.7822 39.7215 40.8266 40.9567 39.0358 41.9454C38.3754 42.3099 37.7253 42.6106 37.1324 42.8696C37.0773 42.8937 37.0217 42.9161 36.9655 42.9368C36.922 42.952 36.878 42.9671 36.8334 42.982C36.0331 43.2358 35.1543 43.1472 34.4704 42.6346Z" fill="black"/>
</svg>
