<svg width="80" height="80" viewBox="0 0 80 80" fill="none" xmlns="http://www.w3.org/2000/svg">
<g opacity="0.3">
<path d="M37.0435 35.9782C39.3068 34.4912 42.209 34.4767 44.5577 35.9407L55.0829 42.501C59.6456 45.345 59.9725 52.1002 55.6962 55.1762L45.0933 62.8029C43.9232 63.6446 42.5297 64.0944 41.0925 64.0944H32.9617L13.7666 51.2717L37.0435 35.9782Z" fill="black" fill-opacity="0.2"/>
<path d="M38.8171 34.7808C41.0804 33.2937 43.9826 33.2792 46.3313 34.7432L58.4175 42.2765C62.9803 45.1205 63.3072 51.8757 59.0309 54.9517L47.2388 63.4338C45.9414 64.367 44.3734 64.8159 42.7804 64.7101L33.0091 64.061L13.7952 51.2208L38.8171 34.7808Z" fill="black" fill-opacity="0.2"/>
</g>
<path d="M32.6936 35.1836L51.8601 48.0087L32.6985 60.8419L13.54 48.0151L32.6936 35.1836Z" fill="#FFA64A"/>
<path d="M51.8601 48.0087L32.6985 60.8419L32.6985 64.0498L51.8601 51.2165V48.0087Z" fill="#FF9528"/>
<path d="M32.6985 60.8419L13.54 48.0151L13.54 51.223L32.6985 64.0498L32.6985 60.8419Z" fill="#FFBA72"/>
<path d="M34.1834 15.7195C34.4817 15.9222 34.6735 16.1383 34.7686 16.3563C34.7916 16.409 34.8098 16.4614 34.8215 16.5142C34.9094 16.9117 34.6809 17.3086 34.1838 17.6417C33.3473 18.2023 31.9713 18.1475 31.2253 17.6435C30.7997 17.3561 30.5838 16.956 30.6341 16.5599C30.6476 16.4542 30.68 16.3488 30.7324 16.2459C30.8279 16.0583 30.9899 15.879 31.2249 15.7214C32.0722 15.1529 33.2705 15.0992 34.1834 15.7195Z" fill="#FFA64A"/>
<path d="M25.8716 52.6194C29.4351 55.0265 35.5886 55.2948 39.5842 52.617C41.9977 50.9995 43.0859 49.0671 42.6081 47.1373L39.6833 35.6345C40.0231 37.0071 39.2635 38.4381 37.5469 39.5885C34.7051 41.4931 30.3284 41.3023 27.7939 39.5902C26.2701 38.5608 25.6493 37.0502 25.933 35.6345L23.0981 47.1373C22.6992 49.1277 23.7291 51.1721 25.8716 52.6194Z" fill="#FF9528"/>
<path d="M27.7939 39.5902C30.3284 41.3023 34.7051 41.4931 37.5469 39.5885C39.2635 38.4381 40.0231 37.0071 39.6833 35.6345L36.7584 24.1318C36.9556 24.9283 36.5065 25.7259 35.5103 26.3935C33.8612 27.4987 31.3214 27.388 29.8506 26.3945C28.9664 25.7971 28.6033 24.9533 28.768 24.1318L25.933 35.6345C25.6493 37.0502 26.2701 38.5608 27.7939 39.5902Z" fill="#EEEEEE"/>
<path d="M34.1838 17.6417C33.3473 18.2023 31.9713 18.1475 31.2253 17.6435C30.7997 17.3561 30.5838 16.956 30.6341 16.5599L28.768 24.1318C28.6033 24.9533 28.9664 25.7971 29.8506 26.3945C31.3214 27.388 33.8612 27.4987 35.5103 26.3935C36.5065 25.7259 36.9556 24.9283 36.7584 24.1318L34.8215 16.5142C34.9094 16.9117 34.6809 17.3086 34.1838 17.6417Z" fill="#FF9528"/>
<path d="M62.526 36.3049C59.3798 38.4908 58.5932 42.0233 58.5932 43.5163C58.595 43.4028 47.2253 35.7493 41.5403 31.9367C41.5403 27.1943 43.5597 24.8952 45.4916 24.0951L63.007 35.9953C62.8531 36.0861 62.6929 36.189 62.526 36.3049Z" fill="#FF5252"/>
<path fill-rule="evenodd" clip-rule="evenodd" d="M48.4589 24.0951C47.8253 23.6773 46.6749 23.605 45.4916 24.0951L63.007 35.9953C64.1408 35.3265 64.9268 35.3194 65.4589 35.6411L48.4589 24.0951Z" fill="#FF3D3D"/>
<path d="M58.5932 47.9953L41.5403 36.4157V31.9367C47.2253 35.7493 58.595 43.4028 58.5932 43.5163L58.5932 47.9953Z" fill="#FF5252"/>
<path d="M58.5932 43.5163C58.5932 42.0233 59.3798 38.4908 62.526 36.3049C62.6929 36.189 62.8531 36.0861 63.007 35.9953V40.4498L58.5932 43.5163Z" fill="#A61532"/>
<path d="M65.4589 35.6411C66.2157 36.0986 66.4589 37.2214 66.4589 38.0516L63.007 40.4498V35.9953C64.1408 35.3265 64.9268 35.3194 65.4589 35.6411Z" fill="#A61532"/>
<path d="M66.4589 42.5306L58.5932 47.9953L58.5932 43.5163L63.007 40.4498L66.4589 38.0516L66.4589 42.5306Z" fill="#A61532"/>
<path d="M52.1873 27.9951V25.3537L56.7458 28.4445V31.9953C56.7458 32.2412 57.0683 32.4951 57.4666 32.4951C57.8648 32.4951 58.1873 32.2373 58.1873 31.9953V28.0627C58.1873 27.8236 58.0688 27.6002 57.8708 27.466L51.8708 23.3986L51.7859 23.3488C51.5799 23.247 51.3351 23.2491 51.1287 23.3586C50.893 23.4837 50.7458 23.7285 50.7458 23.9953V27.9951C50.7458 28.1709 51.0683 28.4951 51.4666 28.4951C51.8648 28.4951 52.1873 28.221 52.1873 27.9951Z" fill="#BDBDBD"/>
<path d="M49.9678 36.9502L47.6426 35.29L48.0146 35.1084C48.7897 35.6618 49.5648 36.2152 50.3398 36.7686V39.3425L49.9678 39.5241V36.9502Z" fill="#A61532"/>
<path d="M47.6426 35.29L49.9678 36.9502V39.5241L47.6426 37.8635V35.29Z" fill="#FF3D3D"/>
</svg>
