<svg width="64" height="64" viewBox="0 0 64 64" fill="none" xmlns="http://www.w3.org/2000/svg">
<path d="M57.4904 54.4953C56.9342 55.6875 56.8738 56.933 57.3555 57.2771C57.8371 57.6213 58.6784 56.9338 59.2345 55.7416C59.7906 54.5494 59.851 53.3039 59.3694 52.9597C58.8878 52.6156 58.0465 53.303 57.4904 54.4953Z" fill="#EAE9F1"/>
<path fill-rule="evenodd" clip-rule="evenodd" d="M20.1186 35.1107C10.6643 35.1107 3.00012 29.5307 3.00012 22.6474C3.00012 15.7642 10.6643 10.1842 20.1186 10.1842C29.5728 10.1842 37.237 15.7642 37.237 22.6474C37.237 29.5307 29.5728 35.1107 20.1186 35.1107ZM33.8804 22.6474C33.8804 17.1408 27.719 12.6769 20.1186 12.6769C12.5181 12.6769 6.35668 17.1408 6.35668 22.6474C6.35668 23.2136 6.42182 23.7688 6.54696 24.3092C7.63891 29.0248 13.2996 32.618 20.1186 32.618C26.9376 32.618 32.5982 29.0248 33.6902 24.3092C33.8153 23.7688 33.8804 23.2136 33.8804 22.6474Z" fill="#EAE9F1"/>
<path d="M3.00012 22.6474C3.00012 29.5307 10.6643 35.1107 20.1186 35.1107C29.5728 35.1107 37.237 29.5307 37.237 22.6474V27.6327C37.237 30.3318 36.0585 32.8305 34.0558 34.871L31.4635 33.0186C30.9819 32.6744 30.1406 33.3619 29.5845 34.5541C29.0284 35.7463 28.968 36.9918 29.4496 37.3359L30.0664 37.7767C27.2627 39.2367 23.8285 40.096 20.1186 40.096C10.6643 40.096 3.00012 34.516 3.00012 27.6327V22.6474Z" fill="#EAE9F1"/>
<path d="M20.1186 12.6769C27.719 12.6769 33.8804 17.1408 33.8804 22.6474C33.8804 23.2136 33.8153 23.7688 33.6902 24.3092C32.5982 19.5936 26.9376 16.0004 20.1186 16.0004C13.2996 16.0004 7.63891 19.5936 6.54696 24.3092C6.42182 23.7688 6.35668 23.2136 6.35668 22.6474C6.35668 17.1408 12.5181 12.6769 20.1186 12.6769Z" fill="#EAE9F1"/>
<path d="M29.4496 37.3359C28.968 36.9918 29.0284 35.7463 29.5845 34.5541C30.1406 33.3619 30.9819 32.6744 31.4635 33.0186L34.0558 34.871L37.9747 37.6714C37.4388 38.0902 36.9388 38.7294 36.561 39.5394C36.1831 40.3493 35.9859 41.2049 35.9608 41.9888L30.0664 37.7767L29.4496 37.3359Z" fill="#EAE9F1"/>
<path d="M56.3276 53.6644C55.4007 55.6514 55.5604 57.9132 56.6841 58.7163L36.9175 44.5913C36.2518 44.1155 35.9244 43.1279 35.9608 41.9888C35.9859 41.2049 36.1831 40.3493 36.561 39.5394C36.9388 38.7294 37.4388 38.0902 37.9747 37.6714C38.7536 37.0628 39.6083 36.9199 40.274 37.3956L60.0407 51.5206C58.9169 50.7176 57.2545 51.6774 56.3276 53.6644Z" fill="#EAE9F1"/>
<path fill-rule="evenodd" clip-rule="evenodd" d="M57.4904 54.4953C56.9342 55.6875 56.8738 56.933 57.3555 57.2771C57.8371 57.6213 58.6784 56.9338 59.2345 55.7416C59.7906 54.5494 59.851 53.3039 59.3694 52.9597C58.8878 52.6156 58.0465 53.303 57.4904 54.4953Z" fill="#EAE9F1"/>
<path fill-rule="evenodd" clip-rule="evenodd" d="M56.6841 58.7163C55.5604 57.9132 55.4007 55.6514 56.3276 53.6644C57.2545 51.6774 58.9169 50.7176 60.0407 51.5206C61.1645 52.3236 61.3241 54.5854 60.3972 56.5725C59.4703 58.5595 57.8079 59.5193 56.6841 58.7163ZM57.3555 57.2771C56.8738 56.933 56.9342 55.6875 57.4904 54.4953C58.0465 53.303 58.8878 52.6156 59.3694 52.9597C59.851 53.3039 59.7906 54.5494 59.2345 55.7416C58.6784 56.9338 57.8371 57.6213 57.3555 57.2771Z" fill="#EAE9F1"/>
<path d="M57.4904 50.3111C56.9342 51.5033 56.8738 52.7488 57.3555 53.0929C57.8371 53.4371 58.6784 52.7496 59.2345 51.5574C59.7906 50.3652 59.851 49.1197 59.3694 48.7755C58.8878 48.4314 58.0465 49.1188 57.4904 50.3111Z" fill="#D9D9D9"/>
<path fill-rule="evenodd" clip-rule="evenodd" d="M20.1186 30.9265C10.6643 30.9265 3.00012 25.3465 3.00012 18.4632C3.00012 11.58 10.6643 6 20.1186 6C29.5728 6 37.237 11.58 37.237 18.4632C37.237 25.3465 29.5728 30.9265 20.1186 30.9265ZM33.8804 18.4632C33.8804 12.9566 27.719 8.49265 20.1186 8.49265C12.5181 8.49265 6.35668 12.9566 6.35668 18.4632C6.35668 19.0294 6.42182 19.5846 6.54696 20.125C7.63891 24.8406 13.2996 28.4338 20.1186 28.4338C26.9376 28.4338 32.5982 24.8406 33.6902 20.125C33.8153 19.5846 33.8804 19.0294 33.8804 18.4632Z" fill="#9E75E5"/>
<path d="M3.00012 18.4632C3.00012 25.3465 10.6643 30.9265 20.1186 30.9265C29.5728 30.9265 37.237 25.3465 37.237 18.4632V23.4485C37.237 26.1476 36.0585 28.6463 34.0558 30.6868L31.4635 28.8344C30.9819 28.4902 30.1406 29.1777 29.5845 30.3699C29.0284 31.5621 28.968 32.8076 29.4496 33.1517L30.0664 33.5925C27.2627 35.0525 23.8285 35.9118 20.1186 35.9118C10.6643 35.9118 3.00012 30.3318 3.00012 23.4485V18.4632Z" fill="#6743B4"/>
<path d="M20.1186 8.49265C27.719 8.49265 33.8804 12.9566 33.8804 18.4632C33.8804 19.0294 33.8153 19.5846 33.6902 20.125C32.5982 15.4094 26.9376 11.8162 20.1186 11.8162C13.2996 11.8162 7.63891 15.4094 6.54696 20.125C6.42182 19.5846 6.35668 19.0294 6.35668 18.4632C6.35668 12.9566 12.5181 8.49265 20.1186 8.49265Z" fill="#513095"/>
<path d="M29.4496 33.1517C28.968 32.8076 29.0284 31.5621 29.5845 30.3699C30.1406 29.1777 30.9819 28.4902 31.4635 28.8344L34.0558 30.6868L37.9747 33.4872C37.4388 33.906 36.9388 34.5452 36.561 35.3552C36.1831 36.1651 35.9859 37.0207 35.9608 37.8046L30.0664 33.5925L29.4496 33.1517Z" fill="#513095"/>
<path d="M56.3276 49.4802C55.4007 51.4672 55.5604 53.729 56.6841 54.5321L36.9175 40.4071C36.2518 39.9313 35.9244 38.9437 35.9608 37.8046C35.9859 37.0207 36.1831 36.1651 36.561 35.3552C36.9388 34.5452 37.4388 33.906 37.9747 33.4872C38.7536 32.8786 39.6083 32.7357 40.274 33.2114L60.0407 47.3364C58.9169 46.5334 57.2545 47.4932 56.3276 49.4802Z" fill="#9E75E5"/>
<path fill-rule="evenodd" clip-rule="evenodd" d="M57.4904 50.3111C56.9342 51.5033 56.8738 52.7488 57.3555 53.0929C57.8371 53.4371 58.6784 52.7496 59.2345 51.5574C59.7906 50.3652 59.851 49.1197 59.3694 48.7755C58.8878 48.4314 58.0465 49.1188 57.4904 50.3111Z" fill="#513095"/>
<path fill-rule="evenodd" clip-rule="evenodd" d="M56.6841 54.5321C55.5604 53.729 55.4007 51.4672 56.3276 49.4802C57.2545 47.4932 58.9169 46.5334 60.0407 47.3364C61.1645 48.1394 61.3241 50.4012 60.3972 52.3883C59.4703 54.3753 57.8079 55.3351 56.6841 54.5321ZM57.3555 53.0929C56.8738 52.7488 56.9342 51.5033 57.4904 50.3111C58.0465 49.1188 58.8878 48.4314 59.3694 48.7755C59.851 49.1197 59.7906 50.3652 59.2345 51.5574C58.6784 52.7496 57.8371 53.4371 57.3555 53.0929Z" fill="#6743B4"/>
<path d="M34.1123 18.9681C34.1123 24.2618 27.6052 28.5532 20.1344 28.5532C12.6636 28.5532 6.15649 23.698 6.15649 18.4043C6.15649 13.1106 12.6636 8.25537 20.1344 8.25537C28.2506 8.25537 34.1123 13.6744 34.1123 18.9681Z" fill="#513095"/>
</svg>
