<svg width="64" height="64" viewBox="0 0 64 64" fill="none" xmlns="http://www.w3.org/2000/svg">
<path d="M40.5682 35.4173C40.2717 35.5562 39.9033 35.6505 39.4557 35.6505C38.9938 35.6505 38.6298 35.55 38.3485 35.4038L38.3432 35.4011C38.3432 30.833 35.8004 29.4509 33.8933 28.4721C32.3677 27.689 31.9862 26.5143 31.9862 26.0249V18.1938C31.9862 20.6266 35.3304 22.5988 39.4557 22.5988C43.581 22.5988 46.9251 20.6266 46.9251 18.1938V26.0249C46.9251 26.5143 46.5437 27.689 45.018 28.4721C43.111 29.4509 40.5682 30.8492 40.5682 35.4173Z" fill="#6743B4"/>
<path d="M39.4557 22.5988C35.3304 22.5988 31.9862 20.6266 31.9862 18.1938C31.9862 15.761 35.3304 13.7888 39.4557 13.7888C43.581 13.7888 46.9251 15.761 46.9251 18.1938C46.9251 20.6266 43.581 22.5988 39.4557 22.5988Z" fill="#9E75E5"/>
<path d="M50.4215 38.1427L44.6409 41.6869L23.5632 29.1944L26.7417 27.3105L29.4434 25.7093L31.4268 26.8847C31.6244 27.6326 32.2774 28.5369 34.3701 29.7772C37.0126 31.3434 37.5902 33.584 37.5486 34.5085C37.6158 34.75 37.8536 35.1448 38.3432 35.4011L38.3485 35.4038C38.6298 35.55 38.9938 35.6505 39.4557 35.6505C39.9033 35.6505 40.2717 35.5562 40.5682 35.4173C40.5875 35.4082 40.6065 35.399 40.6253 35.3895C41.135 35.133 41.4192 34.7464 41.5177 34.5085C41.5021 34.1624 41.5516 33.626 41.7582 33.0081L50.4215 38.1427Z" fill="#9E75E5"/>
<path d="M23.5632 29.1944L44.6409 41.6869V51.7618C44.3883 51.885 44.1232 51.9431 43.7467 51.8395L37.5486 48.166L35.4255 46.9077L33.7344 45.9053L29.9202 43.6447L27.0596 60L24.3412 58.3888L21.6042 56.7666L20.3847 56.0439L23.5632 37.6083V35.1553V29.4452V29.1944Z" fill="#6743B4"/>
<path d="M27.0596 60L29.9202 43.6447L33.7344 45.9053V51.8395L32.9086 56.5333L27.0596 60Z" fill="#9E75E5"/>
<path d="M35.4255 46.9077V53.1072L35.9593 56.6965C36.0424 57.0329 36.098 57.5544 35.8916 57.7204C35.8594 57.7362 35.8289 57.7511 35.8004 57.7651C35.7097 57.7873 35.5875 57.7638 35.4255 57.6754C34.529 57.1859 33.7344 57.0228 33.7344 55.5545V51.8395V45.9053L35.4255 46.9077Z" fill="#422791"/>
<path d="M35.4255 53.1072V46.9077L37.5486 48.166V52.2915L38.1843 55.7176C38.2619 55.9351 38.3069 56.4354 37.8664 56.6965C37.4509 56.9428 36.4298 57.4554 35.8916 57.7204C36.098 57.5544 36.0424 57.0329 35.9593 56.6965L35.4255 53.1072Z" fill="#9E75E5"/>
<path d="M44.6409 41.6869L50.4215 38.1427V41.6987L49.309 41.0393L45.4636 43.3184V48.5391L47.7198 49.939L45.177 51.4461C44.9826 51.5612 44.8147 51.6769 44.6409 51.7618V41.6869Z" fill="#422791"/>
<path d="M52.3286 42.829L48.5144 45.113V45.1266L45.4636 43.3184L49.309 41.0393L50.4215 41.6987L52.3286 42.829Z" fill="#9E75E5"/>
<path d="M48.5144 50.4099L47.7198 49.939L45.4636 48.5391V43.3184L48.5144 45.1266V50.4099Z" fill="#6743B4"/>
<path d="M51.6929 45.0456C50.6396 45.6499 49.7858 47.1196 49.7858 48.3282C49.7858 48.8971 49.975 49.3068 50.2852 49.518L50.1563 49.4368L48.9912 48.7023C48.5674 48.4304 48.1965 47.3971 49.1501 45.7656C50.1844 43.9961 51.1953 43.8623 51.5028 43.971L52.3286 44.4605L53.0664 44.9277C52.7195 44.7136 52.2324 44.7361 51.6929 45.0456Z" fill="#6743B4"/>
<path d="M48.5144 45.113L52.3286 42.829V44.4605L51.5028 43.971C51.1953 43.8623 50.1844 43.9961 49.1501 45.7656C48.1965 47.3971 48.5674 48.4304 48.9912 48.7023L50.1563 49.4368L48.5144 50.4099V45.1266V45.113Z" fill="#9E75E5"/>
<path fill-rule="evenodd" clip-rule="evenodd" d="M53.6 46.1398C53.6 47.3484 52.7461 48.818 51.6929 49.4223C51.1355 49.7422 50.6339 49.7555 50.2852 49.518C49.975 49.3068 49.7858 48.8971 49.7858 48.3282C49.7858 47.1196 50.6396 45.6499 51.6929 45.0456C52.2324 44.7361 52.7195 44.7136 53.0664 44.9277L53.0841 44.9389C53.404 45.1468 53.6 45.5608 53.6 46.1398ZM51.6929 48.2552C52.2195 47.9732 52.6464 47.2874 52.6464 46.7233C52.6464 46.1593 52.2195 45.9307 51.6929 46.2127C51.1663 46.4947 50.7393 47.1806 50.7393 47.7446C50.7393 48.3086 51.1663 48.5372 51.6929 48.2552Z" fill="#9E75E5"/>
<path d="M52.6464 46.7233C52.6464 47.2874 52.2195 47.9732 51.6929 48.2552C51.1663 48.5372 50.7393 48.3086 50.7393 47.7446C50.7393 47.1806 51.1663 46.4947 51.6929 46.2127C52.2195 45.9307 52.6464 46.1593 52.6464 46.7233Z" fill="#422791"/>
<path d="M11.5328 32.711C9.69433 31.4688 7.82523 30.6494 6.69922 30.2832C6.46113 30.1689 5.76368 29.6543 6.08153 28.7984C6.39938 27.9424 7.07927 28.0646 7.37092 28.1056C8.68176 28.5319 10.738 29.4397 12.756 30.8032C14.765 32.1607 16.833 34.0349 18.0363 36.4328C18.7878 37.9305 19.0868 39.3082 19.0662 40.6118C19.0457 41.9046 18.7117 43.0563 18.2948 44.0988C17.8981 45.0908 17.3531 46.1419 16.9604 47.0058C16.5412 47.928 16.2157 48.7911 16.0807 49.6916C15.5325 53.3502 17.4124 55.5253 19.2931 56.4906C19.8989 56.8016 20.7381 56.8661 21.6042 56.7666L24.3412 58.3888C23.8603 58.6197 22.9211 58.9112 21.8737 59.034C20.8203 59.1576 19.468 59.1344 18.2979 58.5338C15.7287 57.215 13.1588 54.1694 13.8819 49.3443C14.0648 48.124 14.4942 47.0292 14.9441 46.0396C15.4204 44.9917 15.8588 44.1767 16.2369 43.2314C16.5947 42.3365 16.8269 41.4794 16.8412 40.5749C16.8554 39.6811 16.6577 38.6728 16.0584 37.4786C15.1003 35.5694 13.3803 33.9593 11.5328 32.711Z" fill="#422791"/>
<path d="M26.7417 27.3105L23.5632 29.1944V29.4452L21.9214 28.472L25.3114 26.4628L26.7417 27.3105Z" fill="#9E75E5"/>
<path d="M21.9214 28.472L23.5632 29.4452V35.1553L21.9214 34.1822V28.472Z" fill="#9E75E5"/>
<path d="M37.5486 34.5085C37.5902 33.584 37.0126 31.3434 34.3701 29.7772C32.2774 28.5369 31.6244 27.6326 31.4268 26.8847C31.3124 26.4521 31.3505 26.0719 31.3505 25.7093V7.75236C31.3505 9.82475 34.9793 11.5048 39.4557 11.5048C43.932 11.5048 47.5608 9.82477 47.5608 7.75238V25.6667C47.5608 26.6563 47.8445 27.7769 44.5413 29.7346C42.8879 30.7146 42.1035 31.9752 41.7582 33.0081C41.5516 33.626 41.5021 34.1624 41.5177 34.5085C41.4192 34.7464 41.135 35.133 40.6253 35.3895C40.6065 35.399 40.5875 35.4082 40.5682 35.4173C40.5682 30.8492 43.111 29.4509 45.018 28.4721C46.5437 27.689 46.9251 26.5143 46.9251 26.0249V18.1938C46.9251 15.761 43.581 13.7888 39.4557 13.7888C35.3304 13.7888 31.9862 15.761 31.9862 18.1938V26.0249C31.9862 26.5143 32.3677 27.689 33.8933 28.4721C35.8004 29.4509 38.3432 30.833 38.3432 35.4011C37.8536 35.1448 37.6158 34.75 37.5486 34.5085Z" fill="#422791"/>
<path d="M39.4557 11.5048C34.9793 11.5048 31.3505 9.82475 31.3505 7.75236C31.3505 5.67998 34.9793 4 39.4557 4C43.932 4 47.5608 5.68 47.5608 7.75238C47.5608 9.82477 43.932 11.5048 39.4557 11.5048Z" fill="#6743B4"/>
</svg>
