<svg width="48" height="59" viewBox="0 0 48 59" fill="none" xmlns="http://www.w3.org/2000/svg">
<path d="M28.6006 5.1419L15.9024 12.3972L21.7674 15.9211L34.4656 8.66588L28.6006 5.1419Z" fill="#01B088"/>
<path d="M18.865 36.6505L21.7674 15.9211L15.9024 12.3972L13 33.1265L16.7726 35.3932L18.865 36.6505Z" fill="#01B088"/>
<path d="M28.2979 25.4566L34.4656 21.9327L30.4299 19.6524L28.2979 25.4566Z" fill="#01B088"/>
<path fill-rule="evenodd" clip-rule="evenodd" d="M34.4656 21.9327L19.9534 53.0266L23.5815 33.9557L18.865 36.6505L21.7674 15.9211L34.4656 8.66588L30.4299 19.6524L28.2979 25.4566L34.4656 21.9327Z" fill="#00E2AE"/>
<path d="M19.9534 53.0266L23.5815 33.9557L18.865 36.6505L16.7726 35.3932L14.0884 49.5027L19.9534 53.0266Z" fill="#01B088"/>
</svg>
