<svg width="108" height="100" viewBox="0 0 108 100" fill="none" xmlns="http://www.w3.org/2000/svg">
<path d="M69 70.5L65 63.5L75 60L76.5 69L69 70.5Z" fill="white"/>
<g opacity="0.4">
<path d="M29.3772 76.038L25.6743 73.4744C24.1929 72.4488 24.2748 70.2328 25.8278 69.3193L61.1069 48.5669C63.2514 47.3054 65.7932 46.9005 68.2236 47.4331L86.4653 51.4313C94.9948 53.3008 97.0347 64.5332 89.7073 69.2825C80.7982 75.0569 70.6738 78.6915 60.1262 79.9019L49.605 81.1092C42.4705 81.928 35.2816 80.1256 29.3772 76.038Z" fill="#786D82" fill-opacity="0.3"/>
<path d="M36.4232 77.8934L27.9352 74.2924C26.1299 73.5265 25.8965 71.0623 27.5259 69.9711L57.0555 50.1959C59.3036 48.6904 62.0714 48.1739 64.7112 48.7673L80.2185 52.2531C88.2059 54.0486 90.1455 64.5421 83.3277 69.0742C75.3512 74.3765 66.303 77.8536 56.8284 79.2577L52.3262 79.9248C46.9393 80.7231 41.4365 80.0202 36.4232 77.8934Z" fill="#786D82" fill-opacity="0.3"/>
</g>
<path d="M23.8895 37.3488L36.2363 23.0476C36.5165 22.7229 36.8438 22.5265 37.1241 22.5149L49.4709 22C51.0445 22 51.995 23.1469 52.8479 24.0242L50.0549 26.2771C50.0549 35.0541 45.7336 45.6468 38.9444 53.5074L37.1217 55.6171C36.8415 55.9418 36.5142 56.1382 36.2339 56.1498L34.4112 56.2273C33.8909 56.249 33.4133 57.3629 32.9228 57.3188C27.3154 54.8506 23.3008 50.4338 23.3008 42.3295V38.7841C23.3008 38.3227 23.5292 37.7627 23.8848 37.3516L23.8895 37.3488Z" fill="#01B088"/>
<path d="M26.9188 39.2624L39.2656 24.9612C39.5458 24.6365 39.8731 24.4401 40.1534 24.4285L52.5002 23.9136C52.8581 23.8993 53.0842 24.1838 53.0842 24.6452V28.1907C53.0842 36.9677 48.7629 47.5604 41.9737 55.421L40.151 57.5307C39.8708 57.8554 39.5435 58.0518 39.2632 58.0634L37.4405 58.1409C30.6513 58.4246 26.3301 53.0202 26.3301 44.2431V40.6977C26.3301 40.2363 26.5585 39.6763 26.9141 39.2652L26.9188 39.2624Z" fill="#00CF9F"/>
<path d="M29.8148 39.7122L39.3655 28.6496C39.5823 28.3985 39.8355 28.2466 40.0522 28.2376L49.6029 27.8393C49.8798 27.8282 50.0547 28.0483 50.0547 28.4052V31.1477C50.0547 37.9371 46.712 46.131 41.4603 52.2115L40.0504 53.8434C39.8336 54.0946 39.5804 54.2465 39.3637 54.2555L37.9537 54.3154C32.702 54.5348 29.3594 50.3543 29.3594 43.5649V40.8224C29.3594 40.4655 29.5361 40.0323 29.8111 39.7144L29.8148 39.7122Z" fill="#01B088"/>
<mask id="mask0_1_391" style="mask-type:alpha" maskUnits="userSpaceOnUse" x="29" y="27" width="22" height="28">
<path d="M29.8148 39.7122L39.3655 28.6496C39.5823 28.3985 39.8355 28.2466 40.0522 28.2376L49.6029 27.8393C49.8798 27.8282 50.0547 28.0483 50.0547 28.4052V31.1477C50.0547 37.9371 46.712 46.131 41.4603 52.2115L40.0504 53.8434C39.8336 54.0946 39.5804 54.2465 39.3637 54.2555L37.9537 54.3154C32.702 54.5348 29.3594 50.3543 29.3594 43.5649V40.8224C29.3594 40.4655 29.5361 40.0323 29.8111 39.7144L29.8148 39.7122Z" fill="#01B088"/>
</mask>
<g mask="url(#mask0_1_391)">
<path d="M28.9925 39.0862L38.5432 28.0237C38.76 27.7725 39.0132 27.6206 39.23 27.6116L48.7807 27.2133C49.0576 27.2022 49.2324 27.4223 49.2324 27.7792V30.5218C49.2324 37.3112 45.8898 45.505 40.6381 51.5855L39.2281 53.2174C39.0114 53.4686 38.7582 53.6205 38.5414 53.6295L37.1315 53.6894C31.8798 53.9089 28.5371 49.7284 28.5371 42.939V40.1964C28.5371 39.8395 28.7138 39.4064 28.9889 39.0884L28.9925 39.0862Z" fill="#00E2AE"/>
</g>
<path d="M45.9483 35.8949L39.6163 47.6678L33.6426 44.2443L34.8065 42.0475L37.6288 43.6608L42.8063 34.0908L45.9483 35.8949Z" fill="#01B088"/>
<path d="M45.9519 35.8911L39.6169 47.667L38.6367 47.109L34.832 44.9331L36.0059 42.7135L38.8282 44.3269L43.9938 34.7705L45.9519 35.8911Z" fill="white"/>
<mask id="mask1_1_391" style="mask-type:alpha" maskUnits="userSpaceOnUse" x="29" y="27" width="22" height="28">
<path d="M29.8148 39.7112L39.3655 28.6487C39.5823 28.3975 39.8355 28.2456 40.0522 28.2366L49.6029 27.8383C49.8798 27.8273 50.0547 28.0474 50.0547 28.4042V31.1468C50.0547 37.9362 46.712 46.13 41.4603 52.2105L40.0504 53.8425C39.8336 54.0936 39.5804 54.2455 39.3637 54.2545L37.9537 54.3145C32.702 54.5339 29.3594 50.3534 29.3594 43.564V40.8214C29.3594 40.4646 29.5361 40.0314 29.8111 39.7134L29.8148 39.7112Z" fill="#A5DBCC" stroke="black" stroke-width="0.755956" stroke-linejoin="round"/>
</mask>
<g mask="url(#mask1_1_391)">
</g>
<path fill-rule="evenodd" clip-rule="evenodd" d="M59.2106 51.5666C53.2972 56.7387 50.9036 62.8532 50.446 65.2639C59.8231 60.6178 67.0248 53.7582 69.4536 50.9091C69.707 48.8929 69.5592 47.6583 69.4536 47.2931C65.99 47.1929 61.1818 50.1004 59.2106 51.5666ZM45.483 68.6608L35.0288 72.3865L36.3574 72.795C37.3685 73.1058 38.4126 73.2835 39.4656 73.324C40.2843 73.3555 41.0884 73.0909 41.7431 72.5746L42.1713 72.2368C42.9686 71.6081 43.6954 70.8868 44.3379 70.0867L45.483 68.6608Z" fill="#FDC83E"/>
<path fill-rule="evenodd" clip-rule="evenodd" d="M46.7953 79.5874C48.687 78.7542 50.4235 76.3629 50.6739 74.2463C50.8049 73.1394 50.5035 72.3268 49.9155 71.9226C49.8492 71.8771 49.7793 71.8367 49.706 71.8017C49.1859 71.5534 48.4931 71.5743 47.7023 71.9226C45.8106 72.7558 44.0741 75.1471 43.8237 77.2637C43.6927 78.3707 43.9942 79.1832 44.5821 79.5874C45.1184 79.956 45.893 79.9848 46.7953 79.5874ZM47.4355 74.177C48.2144 73.8339 48.7623 74.2623 48.6591 75.1338C48.556 76.0053 47.841 76.99 47.0621 77.3331C46.2832 77.6762 45.7353 77.2478 45.8385 76.3763C45.9416 75.5047 46.6566 74.5201 47.4355 74.177Z" fill="black"/>
<path fill-rule="evenodd" clip-rule="evenodd" d="M73.8291 63.6986C75.7207 62.8653 77.4572 60.4741 77.7077 58.3575C77.8386 57.2505 77.5372 56.4379 76.9492 56.0338C76.883 55.9883 76.8131 55.9479 76.7398 55.9129C76.2196 55.6646 75.5269 55.6854 74.736 56.0338C72.8444 56.867 71.1079 59.2583 70.8574 61.3749C70.7429 62.3429 70.959 63.0858 71.4083 63.5273L71.6159 63.6986C72.1522 64.0672 72.9268 64.096 73.8291 63.6986ZM74.4693 58.2882C75.2482 57.9451 75.796 58.3735 75.6929 59.245C75.5898 60.1165 74.8747 61.1012 74.0958 61.4443C73.3169 61.7873 72.7691 61.359 72.8722 60.4874C72.9753 59.6159 73.6904 58.6313 74.4693 58.2882Z" fill="black"/>
<path d="M50.446 65.2639C50.9036 62.8532 53.2972 56.7387 59.2106 51.5666C61.1818 50.1004 65.99 47.1929 69.4536 47.2931C69.5592 47.6583 69.707 48.8929 69.4536 50.9091C67.0248 53.7582 59.8231 60.6178 50.446 65.2639Z" fill="black"/>
<path d="M47.7005 65.2639L54.8811 54.1965C52.3003 52.9181 46.2445 49.6161 42.6677 46.6356C42.346 46.8708 42.0513 47.0911 41.7871 47.2931L37.6827 50.9734L35.3567 52.9911L32.3889 55.621C31.5441 57.0455 32.0721 59.3467 37.88 63.1819C42.5262 66.2501 46.363 65.8483 47.7005 65.2639Z" fill="black"/>
<path d="M61.0058 38.4172C63.2201 39.5199 68.8966 42.6263 72.1383 47.0612C72.1991 47.1444 72.4105 47.3205 72.6508 47.3858C72.6699 47.391 72.6892 47.3955 72.7085 47.3992C73.4765 47.5453 74.8955 47.578 76.0437 46.9643C70.4476 41.7878 64.3504 39.4196 61.0058 38.4172Z" fill="black"/>
<path d="M78.2182 50.9091C78.725 48.8052 77.4438 47.841 76.7398 47.6218C76.1766 48.0966 75.0713 49.4189 75.1558 50.9091C75.6486 51.2013 76.951 51.6104 78.2182 50.9091Z" fill="#ED264F"/>
<path d="M37.1789 50.0607C36.9433 49.7075 36.477 49.6017 36.1553 49.87C34.9622 50.865 35.1071 52.0644 35.3567 52.9911L37.6827 50.9734C37.5716 50.6823 37.3723 50.3507 37.1789 50.0607Z" fill="#FDC83E"/>
<path d="M35.0288 72.3865L45.483 68.6608L44.3379 70.0867C43.6954 70.8868 42.9686 71.6081 42.1713 72.2368L41.7431 72.5746C41.0884 73.0909 40.2843 73.3555 39.4656 73.324C38.4126 73.2835 37.3685 73.1058 36.3574 72.795L35.0288 72.3865Z" fill="white"/>
<path d="M43.8237 77.2637C44.0741 75.1471 45.8106 72.7558 47.7023 71.9226C48.4931 71.5743 49.1859 71.5534 49.706 71.8017C49.7793 71.8367 49.8492 71.8771 49.9155 71.9226C49.6901 71.6283 48.9949 70.9552 48.0173 70.6173C45.6007 71.4399 42.8742 74.5598 42.6493 77.9749C43.1702 78.7639 44.1549 79.3786 44.5821 79.5874C43.9942 79.1832 43.6927 78.3707 43.8237 77.2637Z" fill="black"/>
<path d="M48.6591 75.1338C48.7623 74.2623 48.2144 73.8339 47.4355 74.177C46.6566 74.5201 45.9416 75.5047 45.8385 76.3763C45.7353 77.2478 46.2832 77.6762 47.0621 77.3331C47.841 76.99 48.556 76.0053 48.6591 75.1338Z" fill="white"/>
<path d="M75.6929 59.245C75.796 58.3735 75.2482 57.9451 74.4693 58.2882C73.6904 58.6313 72.9753 59.6159 72.8722 60.4874C72.7691 61.359 73.3169 61.7873 74.0958 61.4443C74.8747 61.1012 75.5898 60.1165 75.6929 59.245Z" fill="white"/>
<path d="M70.8574 61.3749C71.1079 59.2583 72.8444 56.867 74.736 56.0338C75.5269 55.6854 76.2196 55.6646 76.7398 55.9129C76.8131 55.9479 76.883 55.9883 76.9492 56.0338C76.7386 55.7016 76.0428 54.9312 74.9446 54.5072C72.4667 55.3997 69.8377 58.9638 70.1928 62.5244L71.4083 63.5273C70.959 63.0858 70.7429 62.3429 70.8574 61.3749Z" fill="black"/>
<path d="M26.4755 66.6884L26.7922 59.9774C26.0932 60.6658 25.425 61.4091 24.8418 62.1957C24.6056 63.3069 24.8513 64.4707 25.5126 65.3737L25.869 65.8603L26.4755 66.6884Z" fill="white"/>
<path d="M77.7375 57.9224C77.9839 56.6805 78.1759 54.4814 76.3174 54.3061C75.8795 54.2648 75.4148 54.3379 74.9446 54.5072C76.0428 54.9312 76.7386 55.7016 76.9492 56.0338C77.4572 56.383 77.7513 57.037 77.7375 57.9224Z" fill="#A0770D"/>
<path d="M50.974 74.6876C51.2908 73.3361 51.7555 70.5894 49.3901 70.414C48.959 70.3821 48.4942 70.455 48.0173 70.6173C48.9949 70.9552 49.6901 71.6283 49.9155 71.9226C50.5035 72.3268 50.8049 73.1394 50.6739 74.2463L50.974 74.6876Z" fill="#A0770D"/>
<path fill-rule="evenodd" clip-rule="evenodd" d="M25.869 65.8603C26.043 66.1362 26.244 66.4137 26.4755 66.6884C28.3377 69.0802 32.9536 71.4837 35.0288 72.3865L45.483 68.6608C45.8836 68.0503 46.8881 66.5161 47.7005 65.2639C46.363 65.8483 42.5262 66.2501 37.88 63.1819C32.0721 59.3467 31.5441 57.0455 32.3889 55.621C31.1832 56.3955 28.8537 57.9475 26.7922 59.9774L26.4755 66.6884L25.869 65.8603Z" fill="#FDC83E"/>
<path fill-rule="evenodd" clip-rule="evenodd" d="M59.2106 51.5666C53.2972 56.7387 50.9036 62.8532 50.446 65.2639C59.8231 60.6178 67.0248 53.7582 69.4536 50.9091C69.707 48.8929 69.5592 47.6583 69.4536 47.2931C65.99 47.1929 61.1818 50.1004 59.2106 51.5666Z" fill="black"/>
<path d="M61.0058 38.4172C60.064 37.9416 58.9773 37.8769 57.9787 38.2012C52.5589 39.9611 46.0858 44.1374 42.6677 46.6356C46.2445 49.6161 52.3003 52.9181 54.8811 54.1965C57.2762 51.5697 63.513 46.3161 69.299 46.3161C70.0328 46.2848 71.522 46.4015 72.1383 47.0612C68.8966 42.6263 63.2201 39.5199 61.0058 38.4172Z" fill="#FDC83E"/>
<path fill-rule="evenodd" clip-rule="evenodd" d="M77.7375 57.9224C79.1736 55.3802 78.7109 52.151 78.2182 50.9091C76.951 51.6104 75.6486 51.2013 75.1558 50.9091C75.0713 49.4189 76.1766 48.0966 76.7398 47.6218C76.5078 47.3981 76.2758 47.179 76.0437 46.9643C74.8955 47.578 73.4765 47.5453 72.7085 47.3992C72.6892 47.3955 72.6699 47.391 72.6508 47.3858C72.4697 47.3369 72.2508 47.215 72.1383 47.0612C71.522 46.4015 70.0328 46.2848 69.299 46.3161C63.513 46.3161 57.2762 51.5697 54.8811 54.1965L47.7005 65.2639C46.8881 66.5161 45.8836 68.0503 45.483 68.6608L44.3379 70.0867C43.6954 70.8868 42.9686 71.6081 42.1713 72.2368L41.7431 72.5746C41.0884 73.0909 40.2843 73.3555 39.4656 73.324C38.4126 73.2835 37.3685 73.1058 36.3574 72.795L35.0288 72.3865C32.9536 71.4837 28.3377 69.0802 26.4755 66.6884C26.244 66.4137 26.043 66.1362 25.869 65.8603L25.5126 65.3737C24.8513 64.4707 24.6056 63.3069 24.8418 62.1957C24.7133 62.3691 24.5889 62.5446 24.4692 62.7221C24.1063 63.2601 23.7867 63.8163 23.5267 64.3872C23.7302 66.5255 26.8462 71.6053 37.5898 75.1893C37.991 75.3232 38.1235 75.7964 37.7927 76.0694C37.6921 76.1524 37.5789 76.2415 37.4523 76.3365C36.5773 76.9923 35.4529 77.1056 34.4291 76.781C35.6208 77.181 37.1308 77.5127 39.0259 77.6172C40.8319 77.7169 41.1612 79.4417 40.2657 79.981C41.3341 79.926 42.2044 79.7595 42.7374 79.5874C42.6401 79.0478 42.6142 78.5078 42.6493 77.9749C42.8742 74.5598 45.6007 71.4399 48.0173 70.6173C48.4942 70.455 48.959 70.3821 49.3901 70.414C51.7555 70.5894 51.2908 73.3361 50.974 74.6876L70.1928 62.5244C69.8377 58.9638 72.4667 55.3997 74.9446 54.5072C75.4148 54.3379 75.8795 54.2648 76.3174 54.3061C78.1759 54.4814 77.9839 56.6805 77.7375 57.9224ZM59.2106 51.5666C53.2972 56.7387 50.9036 62.8532 50.446 65.2639C59.8231 60.6178 67.0248 53.7582 69.4536 50.9091C69.707 48.8929 69.5592 47.6583 69.4536 47.2931C65.99 47.1929 61.1818 50.1004 59.2106 51.5666Z" fill="#CD9F2E"/>
<path d="M24.4692 72.7152C25.5955 73.5553 28.8198 75.8272 32.7058 78.1941C35.284 79.7644 38.1596 80.0894 40.2657 79.981C41.1612 79.4417 40.8319 77.7169 39.0259 77.6172C37.1308 77.5127 35.6208 77.181 34.4291 76.781C34.3724 76.763 34.316 76.7437 34.26 76.723C33.0708 76.3071 32.2119 75.8275 31.6113 75.4546C29.3201 74.1897 26.8181 72.6094 24.9742 70.977C23.1558 69.3906 22.7682 67.5945 22.8016 66.8947C22.7268 67.4061 22.6965 67.8853 22.7018 68.3321C22.7301 70.7412 23.7916 72.209 24.4692 72.7152Z" fill="#FDC83E"/>
<path d="M37.4523 76.3365C37.5789 76.2415 37.6921 76.1524 37.7927 76.0694C38.1235 75.7964 37.991 75.3232 37.5898 75.1893C26.8462 71.6053 23.7302 66.5255 23.5267 64.3872C23.2986 64.8881 23.1163 65.4002 22.9908 65.9213C22.9097 66.2578 22.8474 66.5823 22.8016 66.8947C22.7682 67.5945 23.1558 69.3906 24.9742 70.977C26.8181 72.6094 29.3201 74.1897 31.6113 75.4546C32.4561 75.9211 33.288 76.3058 34.0465 76.6371C34.117 76.6679 34.1882 76.6966 34.26 76.723C34.3156 76.7425 34.372 76.7618 34.4291 76.781C35.4529 77.1056 36.5773 76.9923 37.4523 76.3365Z" fill="black"/>
</svg>
