<svg width="64" height="64" viewBox="0 0 64 64" fill="none" xmlns="http://www.w3.org/2000/svg">
<path fill-rule="evenodd" clip-rule="evenodd" d="M21.6548 31.6391L50.1258 18.2066L52.9072 42.8223C52.9904 43.5582 52.6018 44.2669 51.9366 44.5926L26.4772 57.0571C25.7587 57.4089 24.9071 56.9504 24.8051 56.1569L21.6548 31.6391ZM27.057 31.7851L23.8449 33.2451L24.2829 36.8952L27.495 35.4352L27.057 31.7851ZM27.933 37.3333L24.7209 38.7933L25.1589 42.4434L28.371 40.9834L27.933 37.3333ZM28.809 43.1735L25.5969 44.6335L26.0349 48.2836L29.2471 46.8236L28.809 43.1735ZM32.0212 29.449L28.809 30.909L29.2471 34.5592L32.4592 33.0991L32.0212 29.449ZM32.8972 34.9972L29.6851 36.4572L30.1231 40.1074L33.3352 38.6473L32.8972 34.9972ZM33.7732 40.8374L30.5611 42.2974L30.9991 45.9476L34.2112 44.4875L33.7732 40.8374ZM34.6492 46.3856L31.4371 47.8456L31.8751 51.4958L35.0873 50.0357L34.6492 46.3856ZM37.2773 27.1129L34.0652 28.5729L34.5032 32.2231L37.7154 30.763L37.2773 27.1129ZM38.1534 32.6611L34.9413 34.1211L35.3793 37.7713L38.5914 36.3112L38.1534 32.6611ZM39.0294 38.5013L35.8173 39.9613L36.2553 43.6115L39.4674 42.1514L39.0294 38.5013ZM39.9054 44.0495L36.6933 45.5095L37.1313 49.1597L40.3434 47.6996L39.9054 44.0495ZM42.2415 24.7768L39.0294 26.2369L39.4674 29.887L42.6795 28.4269L42.2415 24.7768ZM43.1175 30.325L39.9054 31.7851L40.3434 35.4352L43.5556 33.9751L43.1175 30.325ZM43.9936 36.1652L40.7815 37.6253L41.2195 41.2754L44.4316 39.8153L43.9936 36.1652ZM44.8696 41.7134L41.6575 43.1735L42.0955 46.8236L45.3076 45.3635L44.8696 41.7134ZM48.3737 27.9889L45.1616 29.449L45.5996 33.0991L48.8117 31.6391L48.3737 27.9889ZM49.2498 33.8291L46.0377 35.2892L46.4757 38.9393L49.6878 37.4793L49.2498 33.8291ZM50.1258 39.3773L46.9137 40.8374L47.3517 44.4875L50.5638 43.0275L50.1258 39.3773Z" fill="#9E75E5"/>
<path d="M23.8449 33.2451L27.057 31.7851L27.495 35.4352L24.2829 36.8952L23.8449 33.2451Z" fill="#6743B4"/>
<path d="M28.809 30.909L32.0212 29.449L32.4592 33.0991L29.2471 34.5592L28.809 30.909Z" fill="#6743B4"/>
<path d="M34.0652 28.5729L37.2773 27.1129L37.7154 30.763L34.5032 32.2231L34.0652 28.5729Z" fill="#6743B4"/>
<path d="M39.0294 26.2369L42.2415 24.7768L42.6795 28.4269L39.4674 29.887L39.0294 26.2369Z" fill="#6743B4"/>
<path d="M24.7209 38.7933L27.933 37.3333L28.371 40.9834L25.1589 42.4434L24.7209 38.7933Z" fill="#6743B4"/>
<path d="M29.6851 36.4572L32.8972 34.9972L33.3352 38.6473L30.1231 40.1074L29.6851 36.4572Z" fill="#6743B4"/>
<path d="M34.9413 34.1211L38.1534 32.6611L38.5914 36.3112L35.3793 37.7713L34.9413 34.1211Z" fill="#6743B4"/>
<path d="M39.9054 31.7851L43.1175 30.325L43.5556 33.9751L40.3434 35.4352L39.9054 31.7851Z" fill="#6743B4"/>
<path d="M45.1616 29.449L48.3737 27.9889L48.8117 31.6391L45.5996 33.0991L45.1616 29.449Z" fill="#6743B4"/>
<path d="M25.5969 44.6335L28.809 43.1735L29.2471 46.8236L26.0349 48.2836L25.5969 44.6335Z" fill="#6743B4"/>
<path d="M30.5611 42.2974L33.7732 40.8374L34.2112 44.4875L30.9991 45.9476L30.5611 42.2974Z" fill="#6743B4"/>
<path d="M35.8173 39.9613L39.0294 38.5013L39.4674 42.1514L36.2553 43.6115L35.8173 39.9613Z" fill="#6743B4"/>
<path d="M40.7815 37.6253L43.9936 36.1652L44.4316 39.8153L41.2195 41.2754L40.7815 37.6253Z" fill="#6743B4"/>
<path d="M46.0377 35.2892L49.2498 33.8291L49.6878 37.4793L46.4757 38.9393L46.0377 35.2892Z" fill="#6743B4"/>
<path d="M31.4371 47.8456L34.6492 46.3856L35.0873 50.0357L31.8751 51.4958L31.4371 47.8456Z" fill="#6743B4"/>
<path d="M36.6933 45.5095L39.9054 44.0495L40.3434 47.6996L37.1313 49.1597L36.6933 45.5095Z" fill="#6743B4"/>
<path d="M41.6575 43.1735L44.8696 41.7134L45.3076 45.3635L42.0955 46.8236L41.6575 43.1735Z" fill="#6743B4"/>
<path d="M46.9137 40.8374L50.1258 39.3773L50.5638 43.0275L47.3517 44.4875L46.9137 40.8374Z" fill="#6743B4"/>
<path d="M20.3683 22.2231L49.1701 9.24932C49.6138 9.04945 50.0899 9.09054 50.4725 9.30072L47.3349 7.54437C46.5199 7.0881 45.5357 7.0493 44.6872 7.43999L16.0284 20.6364C15.6551 20.8083 15.3344 21.0615 15.0846 21.3704L18.9196 23.9008C18.944 23.8147 18.9729 23.7302 19.0058 23.6474C19.2522 23.0288 19.7308 22.5103 20.3683 22.2231Z" fill="#6743B4"/>
<path d="M23.1323 57.77L18.8418 24.9601C18.7943 24.597 18.8237 24.2376 18.9196 23.9008L15.0846 21.3704C14.7622 21.7689 14.5576 22.2599 14.5101 22.7879L12.7927 41.8594L12.0371 50.2507C11.9365 51.3687 12.4856 52.4455 13.4496 53.0205L24.0831 59.3628C23.5841 59.0046 23.2211 58.4488 23.1323 57.77Z" fill="#422791"/>
<path d="M13.4496 53.0205C12.4856 52.4455 11.9365 51.3687 12.0371 50.2507L12.7927 41.8594L4.38265 45.9897C3.38025 46.482 3.30225 47.8811 4.24587 48.4784C10.7424 52.5905 20.7574 58.9656 21.8008 59.5681C22.9688 60.2424 24.4289 59.9792 25.0129 59.7633C24.8093 59.7242 24.6123 59.6581 24.4273 59.5681C24.307 59.5095 24.1918 59.4409 24.0831 59.3628L13.4496 53.0205Z" fill="#ECEAF6"/>
<path fill-rule="evenodd" clip-rule="evenodd" d="M51.2211 10.4212C51.0461 9.33226 49.9313 9.51219 49.3958 9.73827C40.2948 13.7778 21.7716 22.0027 20.4867 22.5867C19.5805 22.9987 19.1665 23.3864 19.0058 23.6474C18.9729 23.7302 18.944 23.8147 18.9196 23.9008C18.8237 24.2376 18.7943 24.597 18.8418 24.9601L23.1323 57.77C23.2211 58.4488 23.5841 59.0046 24.0831 59.3628L24.4273 59.5681C24.6123 59.6581 24.8093 59.7242 25.0129 59.7633C25.4844 59.854 25.9917 59.8005 26.47 59.5681L53.0543 46.6451C54.2751 46.0517 54.9911 44.7549 54.8429 43.4056L51.2211 10.4212ZM21.6548 31.6391L50.1258 18.2066L52.9072 42.8223C52.9904 43.5582 52.6018 44.2669 51.9366 44.5926L26.4772 57.0571C25.7587 57.4089 24.9071 56.9504 24.8051 56.1569L21.6548 31.6391Z" fill="#6743B4"/>
<path d="M49.1701 9.24932L20.3683 22.2231C19.7308 22.5103 19.2522 23.0288 19.0058 23.6474C19.1665 23.3864 19.5805 22.9987 20.4867 22.5867C21.7716 22.0027 40.2948 13.7778 49.3958 9.73827C49.9313 9.51219 51.0461 9.33226 51.2211 10.4212C51.1669 9.92785 50.8798 9.5328 50.4931 9.31226C50.4862 9.30836 50.4794 9.30451 50.4725 9.30072C50.0899 9.09054 49.6138 9.04945 49.1701 9.24932Z" fill="#9E75E5"/>
<path d="M24.0089 14.0507C26.0035 15.7875 27.2096 19.2998 26.7027 21.8956C26.4507 23.1863 25.8226 24.0074 25.0095 24.2933L26.9474 23.6162C27.7614 23.331 28.3904 22.5096 28.6426 21.2178C29.1494 18.6221 27.9433 15.1098 25.9487 13.373C24.9522 12.5052 23.9474 12.2449 23.1281 12.5253L21.2788 13.1744C22.0809 12.9424 23.0488 13.2147 24.0089 14.0507Z" fill="#9E75E5"/>
<path d="M26.7027 21.8956C27.2096 19.2998 26.0035 15.7875 24.0089 14.0507C23.0488 13.2147 22.0809 12.9424 21.2788 13.1744L21.0718 13.247C20.3079 13.5637 19.7211 14.3692 19.4797 15.606C19.28 16.6288 19.3462 17.7938 19.6218 18.9365L20.6589 18.4605C20.5486 17.8247 20.5383 17.1921 20.6491 16.6243C20.8917 15.3821 21.6494 14.7832 22.5497 14.9555C22.9215 15.0267 23.3176 15.2294 23.7117 15.5726C25.0605 16.7471 25.876 19.122 25.5333 20.8773C25.4351 21.3803 25.2524 21.7778 25.01 22.0614C24.6425 22.4009 24.128 23.3225 25.0095 24.2933C25.8226 24.0074 26.4507 23.1863 26.7027 21.8956Z" fill="#422791"/>
<path d="M22.0264 16.1397C22.1246 15.6366 22.3073 15.2391 22.5497 14.9555C21.6494 14.7832 20.8917 15.3821 20.6491 16.6243C20.5383 17.1921 20.5486 17.8247 20.6589 18.4605L22.0152 17.8473C21.925 17.255 21.923 16.6691 22.0264 16.1397Z" fill="#9E75E5"/>
<path d="M43.2816 5.29055C45.2762 7.02737 46.4823 10.5396 45.9754 13.1354C45.7234 14.4262 45.0953 15.2473 44.2822 15.5331L46.2201 14.8561C47.0341 14.5709 47.6631 13.7495 47.9153 12.4577C48.4221 9.86189 47.216 6.34963 45.2214 4.61282C44.2249 3.74508 43.2201 3.48469 42.4008 3.76509L40.5515 4.41427C41.3536 4.18226 42.3215 4.45451 43.2816 5.29055Z" fill="#9E75E5"/>
<path d="M45.9754 13.1354C46.4823 10.5396 45.2762 7.02737 43.2816 5.29055C42.3215 4.45451 41.3536 4.18226 40.5515 4.41427L40.3445 4.48684C39.5806 4.80351 38.9938 5.60909 38.7524 6.84585C38.5527 7.86861 38.6189 9.03366 38.8945 10.1763L39.9316 9.70032C39.8213 9.06449 39.811 8.43191 39.9218 7.86416C40.1644 6.6219 40.9221 6.02299 41.8224 6.19537C42.1942 6.26655 42.5903 6.46926 42.9844 6.81248C44.3332 7.9869 45.1487 10.3619 44.806 12.1171C44.7078 12.6201 44.5251 13.0177 44.2827 13.3012C43.9152 13.6407 43.4007 14.5623 44.2822 15.5331C45.0953 15.2473 45.7234 14.4262 45.9754 13.1354Z" fill="#422791"/>
<path d="M41.2991 7.3795C41.3973 6.87647 41.58 6.47893 41.8224 6.19537C40.9221 6.02299 40.1644 6.6219 39.9218 7.86416C39.811 8.43191 39.8213 9.06449 39.9316 9.70032L41.288 9.0871C41.1977 8.49482 41.1957 7.90896 41.2991 7.3795Z" fill="#9E75E5"/>
</svg>
