<svg width="80" height="80" viewBox="0 0 80 80" fill="none" xmlns="http://www.w3.org/2000/svg">
<g clip-path="url(#clip0_1_485)">
<g opacity="0.4">
<path d="M-21.3836 85.0792L-25.8578 81.9816C-27.6478 80.7424 -27.5489 78.0648 -25.6724 76.961L16.9555 51.8858C19.5467 50.3615 22.618 49.8723 25.5545 50.5159L47.5961 55.3469C57.9023 57.6058 60.3672 71.178 51.5134 76.9165C40.7485 83.8938 28.5151 88.2855 15.7705 89.748L3.05773 91.2068C-5.56291 92.1961 -14.2493 90.0183 -21.3836 85.0792Z" fill="#786D82" fill-opacity="0.3"/>
<path d="M-12.8711 87.321L-23.1272 82.9699C-25.3086 82.0445 -25.5906 79.067 -23.6218 77.7485L12.0588 53.8541C14.7753 52.0349 18.1196 51.4109 21.3093 52.1279L40.0469 56.3399C49.698 58.5093 52.0416 71.1887 43.8037 76.6647C34.1656 83.0715 23.2327 87.2729 11.7845 88.9695L6.34445 89.7756C-0.1646 90.7402 -6.81359 89.8908 -12.8711 87.321Z" fill="#786D82" fill-opacity="0.3"/>
</g>
<path d="M40.6504 37.2479L36.4941 39.7904C35.1651 40.6033 34.0878 42.5804 34.0878 44.2062C34.0878 44.9997 34.3443 45.5628 34.7615 45.837C35.1992 46.1247 35.8136 46.0944 36.4941 45.6782L40.6504 43.1357C41.9793 42.3228 43.0566 40.3458 43.0566 38.7199C43.0566 37.9224 42.7974 37.3575 42.3764 37.0848L42.3349 37.0592C41.9009 36.8041 41.3063 36.8467 40.6504 37.2479Z" fill="#595F74"/>
<path d="M36.4941 39.7904L40.6504 37.2479C41.3063 36.8467 41.9009 36.8041 42.3349 37.0592L39.2659 35.1646C38.8355 34.9334 38.2563 34.9849 37.6192 35.3746L33.4629 37.917C32.134 38.7299 31.0566 40.707 31.0566 42.3328C31.0566 43.1028 31.2982 43.6559 31.6937 43.9385L34.7615 45.837C34.3443 45.5628 34.0878 44.9997 34.0878 44.2062C34.0878 42.5804 35.1651 40.6033 36.4941 39.7904Z" fill="#8E94B2"/>
<path d="M35.653 44.2381L33.2285 45.6249C32.4532 46.0683 31.8248 47.1467 31.8248 48.0336C31.8248 48.4663 31.9745 48.7735 32.2178 48.9231C32.4731 49.08 32.8316 49.0635 33.2285 48.8364L35.653 47.4497C36.4282 47.0062 37.0566 45.9279 37.0566 45.041C37.0566 44.606 36.9054 44.2979 36.6599 44.1492L36.6356 44.1352C36.3824 43.996 36.0356 44.0193 35.653 44.2381Z" fill="#595F74"/>
<path d="M33.2285 45.6249L35.653 44.2381C36.0356 44.0193 36.3824 43.996 36.6356 44.1352L34.8454 43.1017C34.5943 42.9757 34.2564 43.0037 33.8848 43.2163L31.4603 44.6031C30.6851 45.0465 30.0566 46.1249 30.0566 47.0117C30.0566 47.4317 30.1976 47.7334 30.4283 47.8875L32.2178 48.9231C31.9745 48.7735 31.8248 48.4663 31.8248 48.0336C31.8248 47.1467 32.4532 46.0683 33.2285 45.6249Z" fill="#8E94B2"/>
<path d="M44.6504 23.046L40.4941 25.3573C39.1651 26.0963 38.0878 27.8936 38.0878 29.3717C38.0878 30.093 38.3443 30.605 38.7615 30.8543C39.1992 31.1158 39.8136 31.0882 40.4941 30.7098L44.6504 28.3985C45.9793 27.6595 47.0566 25.8622 47.0566 24.3841C47.0566 23.6591 46.7974 23.1456 46.3764 22.8977L46.3349 22.8744C45.9009 22.6424 45.3063 22.6812 44.6504 23.046Z" fill="#595F74"/>
<path d="M40.4941 25.3573L44.6504 23.046C45.3063 22.6812 45.9009 22.6424 46.3349 22.8744L43.2659 21.152C42.8355 20.9419 42.2563 20.9887 41.6192 21.3429L37.4629 23.6542C36.134 24.3933 35.0566 26.1906 35.0566 27.6686C35.0566 28.3685 35.2982 28.8714 35.6937 29.1283L38.7615 30.8543C38.3443 30.605 38.0878 30.093 38.0878 29.3717C38.0878 27.8936 39.1651 26.0963 40.4941 25.3573Z" fill="#8E94B2"/>
<path d="M50.4559 30.1442L49.1432 30.8906C46.5897 32.3423 44.5196 35.8728 44.5196 38.7762C44.5196 40.1272 44.9678 41.1044 45.7043 41.6169L46.0095 41.7947C46.8334 42.1903 47.9341 42.0922 49.1432 41.4048L62.4085 33.8633C64.9097 32.4413 66.4547 29.7858 66.4547 26.9086V19.8315V18.3615V18.0175C66.4547 15.9286 65.7115 14.4595 64.5094 13.7719C63.3024 13.0814 61.6328 13.1788 59.7881 14.2275C56.1063 16.3207 53.1216 21.4112 53.1216 25.5976C53.1216 27.2715 51.9281 29.3073 50.4559 30.1442Z" fill="#595F74"/>
<path d="M49.1432 30.8906L50.4559 30.1442C51.9281 29.3073 53.1216 27.2715 53.1216 25.5976C53.1216 21.4112 56.1063 16.3207 59.7881 14.2275C61.6328 13.1788 63.3024 13.0814 64.5094 13.7719L58.9221 10.5256C57.726 9.91041 56.1072 10.0356 54.3251 11.0488C50.6433 13.142 47.6586 18.2325 47.6586 22.4188C47.6586 24.0928 46.4652 26.1285 44.9929 26.9655L43.6802 27.7118C41.1267 29.1635 39.0566 32.6941 39.0566 35.5975C39.0566 36.9236 39.4884 37.8895 40.2009 38.4093L45.7043 41.6169C44.9678 41.1044 44.5196 40.1272 44.5196 38.7762C44.5196 35.8728 46.5897 32.3423 49.1432 30.8906Z" fill="#8E94B2"/>
<path d="M55.0462 35.4597L48.119 39.389C45.9041 40.6453 44.1085 43.7007 44.1085 46.2134C44.1085 47.4396 44.5361 48.31 45.2314 48.7338C45.9609 49.1784 46.985 49.1315 48.119 48.4882L55.0462 44.559C57.2611 43.3027 59.0566 40.2472 59.0566 37.7345C59.0566 36.502 58.6246 35.629 57.923 35.2077L57.8537 35.168C57.1303 34.7737 56.1393 34.8397 55.0462 35.4597Z" fill="#595F74"/>
<path d="M48.119 39.389L55.0462 35.4597C56.1393 34.8397 57.1303 34.7737 57.8537 35.168L52.7388 32.2399C52.0214 31.8827 51.056 31.9623 49.9943 32.5645L43.0671 36.4937C40.8522 37.7501 39.0566 40.8055 39.0566 43.3182C39.0566 44.5081 39.4593 45.3629 40.1184 45.7997L45.2314 48.7338C44.5361 48.31 44.1085 47.4396 44.1085 46.2134C44.1085 43.7007 45.9041 40.6453 48.119 39.389Z" fill="#8E94B2"/>
<path d="M68.6504 27.046L64.4941 29.3573C63.1651 30.0963 62.0878 31.8936 62.0878 33.3717C62.0878 34.093 62.3443 34.605 62.7615 34.8543C63.1992 35.1158 63.8136 35.0882 64.4941 34.7098L68.6504 32.3985C69.9793 31.6595 71.0566 29.8622 71.0566 28.3841C71.0566 27.6591 70.7974 27.1456 70.3764 26.8977L70.3349 26.8744C69.9009 26.6424 69.3063 26.6812 68.6504 27.046Z" fill="#595F74"/>
<path d="M64.4941 29.3573L68.6504 27.046C69.3063 26.6812 69.9009 26.6424 70.3349 26.8744L67.2659 25.152C66.8355 24.9419 66.2563 24.9887 65.6192 25.3429L61.4629 27.6542C60.134 28.3933 59.0566 30.1906 59.0566 31.6686C59.0566 32.3685 59.2982 32.8714 59.6937 33.1283L62.7615 34.8543C62.3443 34.605 62.0878 34.093 62.0878 33.3717C62.0878 31.8936 63.1651 30.0963 64.4941 29.3573Z" fill="#8E94B2"/>
<path fill-rule="evenodd" clip-rule="evenodd" d="M15.7786 55.9447C8.70359 62.1019 5.83989 69.381 5.29242 72.2509C16.5114 66.7199 25.1277 58.5537 28.0336 55.162C28.3368 52.7617 28.1599 51.2919 28.0336 50.8571C23.8896 50.7379 18.137 54.1992 15.7786 55.9447ZM-0.645546 76.2949L-13.1532 80.7302L-11.5636 81.2165C-10.3539 81.5866 -9.10476 81.7982 -7.84496 81.8463C-6.86543 81.8838 -5.90334 81.5688 -5.12007 80.9541L-4.6077 80.5521C-3.65386 79.8036 -2.78428 78.9449 -2.01555 77.9924L-0.645546 76.2949Z" fill="#FDC83E"/>
<path fill-rule="evenodd" clip-rule="evenodd" d="M0.924612 89.3027C3.18782 88.3108 5.26541 85.4641 5.56504 82.9443C5.72175 81.6265 5.3611 80.6591 4.65762 80.178C4.57837 80.1238 4.49476 80.0758 4.40705 80.0341C3.78472 79.7385 2.95588 79.7633 2.00968 80.178C-0.253523 81.1699 -2.33112 84.0167 -2.63075 86.5364C-2.78746 87.8542 -2.42681 88.8216 -1.72332 89.3027C-1.08171 89.7416 -0.154934 89.7759 0.924612 89.3027ZM1.69053 82.8618C2.62244 82.4534 3.27789 82.9633 3.15451 84.0009C3.03113 85.0384 2.17565 86.2106 1.24374 86.619C0.311832 87.0275 -0.343609 86.5175 -0.22023 85.48C-0.0968513 84.4424 0.758625 83.2702 1.69053 82.8618Z" fill="black"/>
<path fill-rule="evenodd" clip-rule="evenodd" d="M33.2686 70.3875C35.5318 69.3955 37.6094 66.5488 37.909 64.0291C38.0657 62.7112 37.705 61.7439 37.0016 61.2627C36.9223 61.2085 36.8387 61.1605 36.751 61.1188C36.1287 60.8232 35.2998 60.848 34.3536 61.2627C32.0904 62.2547 30.0128 65.1014 29.7132 67.6212C29.5762 68.7736 29.8348 69.658 30.3723 70.1836L30.6206 70.3875C31.2622 70.8263 32.189 70.8606 33.2686 70.3875ZM34.0345 63.9465C34.9664 63.5381 35.6218 64.0481 35.4985 65.0856C35.3751 66.1231 34.5196 67.2953 33.5877 67.7038C32.6558 68.1122 32.0003 67.6022 32.1237 66.5647C32.2471 65.5272 33.1026 64.355 34.0345 63.9465Z" fill="black"/>
<path d="M5.29242 72.2509C5.83989 69.381 8.70359 62.1019 15.7786 55.9447C18.137 54.1992 23.8896 50.7379 28.0336 50.8571C28.1599 51.2919 28.3368 52.7617 28.0336 55.162C25.1277 58.5537 16.5114 66.7199 5.29242 72.2509Z" fill="black"/>
<path d="M2.00759 72.2509L10.5987 59.0755C7.51092 57.5536 0.265549 53.6227 -4.0138 50.0744C-4.39877 50.3544 -4.75134 50.6166 -5.06743 50.8571L-9.97799 55.2384L-12.7609 57.6405L-16.3117 60.7713C-17.3224 62.4672 -16.6907 65.2066 -9.742 69.7724C-4.18306 73.425 0.407284 72.9467 2.00759 72.2509Z" fill="black"/>
<path d="M17.9264 40.2907C20.5757 41.6033 27.3672 45.3014 31.2456 50.581C31.3184 50.6801 31.5713 50.8898 31.8588 50.9676C31.8816 50.9737 31.9047 50.9791 31.9279 50.9835C32.8467 51.1574 34.5445 51.1963 35.9182 50.4658C29.2228 44.3032 21.928 41.4839 17.9264 40.2907Z" fill="black"/>
<path d="M38.5198 55.162C39.1262 52.6573 37.5933 51.5094 36.751 51.2485C36.0772 51.8137 34.7548 53.3878 34.8559 55.162C35.4455 55.5098 37.0037 55.9969 38.5198 55.162Z" fill="#ED264F"/>
<path d="M-10.5807 54.1519C-10.8626 53.7314 -11.4205 53.6054 -11.8054 53.9249C-13.2329 55.1094 -13.0595 56.5373 -12.7609 57.6405L-9.97799 55.2384C-10.1109 54.8919 -10.3494 54.4971 -10.5807 54.1519Z" fill="#FDC83E"/>
<path d="M-13.1532 80.7302L-0.645546 76.2949L-2.01555 77.9924C-2.78428 78.9449 -3.65386 79.8036 -4.6077 80.5521L-5.12007 80.9541C-5.90334 81.5688 -6.86543 81.8838 -7.84496 81.8463C-9.10476 81.7982 -10.3539 81.5866 -11.5636 81.2165L-13.1532 80.7302Z" fill="white"/>
<path d="M-2.63075 86.5364C-2.33112 84.0167 -0.253523 81.1699 2.00968 80.178C2.95588 79.7633 3.78472 79.7385 4.40705 80.0341C4.49476 80.0758 4.57837 80.1238 4.65762 80.178C4.38795 79.8277 3.5562 79.0264 2.38661 78.6241C-0.504646 79.6034 -3.76678 83.3175 -4.03581 87.3832C-3.41265 88.3224 -2.2345 89.0542 -1.72332 89.3027C-2.42681 88.8216 -2.78746 87.8542 -2.63075 86.5364Z" fill="black"/>
<path d="M3.15451 84.0009C3.27789 82.9633 2.62244 82.4534 1.69053 82.8618C0.758625 83.2702 -0.0968513 84.4424 -0.22023 85.48C-0.343609 86.5175 0.311832 87.0275 1.24374 86.619C2.17565 86.2106 3.03113 85.0384 3.15451 84.0009Z" fill="white"/>
<path d="M35.4985 65.0856C35.6218 64.0481 34.9664 63.5381 34.0345 63.9465C33.1026 64.355 32.2471 65.5272 32.1237 66.5647C32.0003 67.6022 32.6558 68.1122 33.5877 67.7038C34.5196 67.2953 35.3751 66.1231 35.4985 65.0856Z" fill="white"/>
<path d="M29.7132 67.6212C30.0128 65.1014 32.0904 62.2547 34.3536 61.2627C35.2998 60.848 36.1287 60.8232 36.751 61.1188C36.8387 61.1605 36.9223 61.2085 37.0016 61.2627C36.7496 60.8673 35.9172 59.9501 34.6032 59.4454C31.6386 60.5079 28.4932 64.7508 28.9179 68.9897L30.3723 70.1836C29.8348 69.658 29.5762 68.7736 29.7132 67.6212Z" fill="black"/>
<path d="M-23.3867 73.9468L-23.0077 65.9576C-23.844 66.777 -24.6435 67.6619 -25.3412 68.5983C-25.6238 69.9212 -25.3299 71.3067 -24.5386 72.3817L-24.1123 72.9609L-23.3867 73.9468Z" fill="white"/>
<path d="M37.9447 63.5111C38.2395 62.0327 38.4692 59.4146 36.2456 59.2059C35.7218 59.1567 35.1657 59.2438 34.6032 59.4454C35.9172 59.9501 36.7496 60.8673 37.0016 61.2627C37.6094 61.6784 37.9613 62.4571 37.9447 63.5111Z" fill="#A0770D"/>
<path d="M5.92412 83.4697C6.30314 81.8608 6.85903 78.5908 4.02902 78.3821C3.51322 78.3441 2.95714 78.4308 2.38661 78.6241C3.5562 79.0264 4.38795 79.8277 4.65762 80.178C5.3611 80.6591 5.72175 81.6265 5.56504 82.9443L5.92412 83.4697Z" fill="#A0770D"/>
<path fill-rule="evenodd" clip-rule="evenodd" d="M-24.1123 72.9609C-23.9041 73.2894 -23.6637 73.6198 -23.3867 73.9468C-21.1587 76.7942 -15.636 79.6555 -13.1532 80.7302L-0.645546 76.2949C-0.166193 75.5681 1.03553 73.7417 2.00759 72.2509C0.407284 72.9467 -4.18306 73.425 -9.742 69.7724C-16.6907 65.2066 -17.3224 62.4672 -16.3117 60.7713C-17.7542 61.6934 -20.5412 63.5409 -23.0077 65.9576L-23.3867 73.9468L-24.1123 72.9609Z" fill="#FDC83E"/>
<path fill-rule="evenodd" clip-rule="evenodd" d="M15.7786 55.9447C8.70359 62.1019 5.83989 69.381 5.29242 72.2509C16.5114 66.7199 25.1277 58.5537 28.0336 55.162C28.3368 52.7617 28.1599 51.2919 28.0336 50.8571C23.8896 50.7379 18.137 54.1992 15.7786 55.9447Z" fill="black"/>
<path d="M17.9264 40.2907C16.7996 39.7244 15.4994 39.6474 14.3047 40.0334C7.82027 42.1286 0.0757446 47.1004 -4.0138 50.0744C0.265549 53.6227 7.51092 57.5536 10.5987 59.0755C13.4643 55.9483 20.9261 49.6941 27.8486 49.6941C28.7266 49.6568 30.5083 49.7958 31.2456 50.581C27.3672 45.3014 20.5757 41.6033 17.9264 40.2907Z" fill="#FDC83E"/>
<path fill-rule="evenodd" clip-rule="evenodd" d="M37.9447 63.5111C39.6629 60.4847 39.1093 56.6404 38.5198 55.162C37.0037 55.9969 35.4455 55.5098 34.8559 55.162C34.7548 53.3878 36.0772 51.8137 36.751 51.2485C36.4735 50.9821 36.1958 50.7213 35.9182 50.4658C34.5445 51.1963 32.8467 51.1574 31.9279 50.9835C31.9047 50.9791 31.8816 50.9737 31.8588 50.9676C31.6422 50.9093 31.3802 50.7642 31.2456 50.581C30.5083 49.7958 28.7266 49.6568 27.8486 49.6941C20.9261 49.6941 13.4643 55.9483 10.5987 59.0755L2.00759 72.2509C1.03553 73.7417 -0.166193 75.5681 -0.645546 76.2949L-2.01555 77.9924C-2.78428 78.9449 -3.65386 79.8036 -4.6077 80.5521L-5.12007 80.9541C-5.90334 81.5688 -6.86543 81.8838 -7.84496 81.8463C-9.10476 81.7982 -10.3539 81.5866 -11.5636 81.2165L-13.1532 80.7302C-15.636 79.6555 -21.1587 76.7942 -23.3867 73.9468C-23.6637 73.6198 -23.9041 73.2894 -24.1123 72.9609L-24.5386 72.3817C-25.3299 71.3067 -25.6238 69.9212 -25.3412 68.5983C-25.495 68.8048 -25.6439 69.0137 -25.7871 69.225C-26.2212 69.8655 -26.6035 70.5277 -26.9146 71.2073C-26.6712 73.7528 -22.9431 79.8002 -10.0892 84.0669C-9.60921 84.2263 -9.45065 84.7896 -9.84641 85.1147C-9.96672 85.2135 -10.1021 85.3196 -10.2537 85.4326C-11.3005 86.2133 -12.6458 86.3483 -13.8708 85.9618C-12.4449 86.438 -10.6384 86.8328 -8.37098 86.9573C-6.21021 87.0759 -5.81624 89.1294 -6.88758 89.7714C-5.60942 89.7059 -4.56815 89.5076 -3.93038 89.3027C-4.0469 88.6604 -4.07778 88.0175 -4.03581 87.3832C-3.76678 83.3175 -0.504646 79.6034 2.38661 78.6241C2.95714 78.4308 3.51322 78.3441 4.02902 78.3821C6.85903 78.5908 6.30314 81.8608 5.92412 83.4697L28.9179 68.9897C28.4932 64.7508 31.6386 60.5079 34.6032 59.4454C35.1657 59.2438 35.7218 59.1567 36.2456 59.2059C38.4692 59.4146 38.2395 62.0327 37.9447 63.5111ZM15.7786 55.9447C8.70359 62.1019 5.83989 69.381 5.29242 72.2509C16.5114 66.7199 25.1277 58.5537 28.0336 55.162C28.3368 52.7617 28.1599 51.2919 28.0336 50.8571C23.8896 50.7379 18.137 54.1992 15.7786 55.9447Z" fill="#CD9F2E"/>
<path d="M-25.7871 81.1215C-24.4394 82.1217 -20.5819 84.8263 -15.9326 87.6441C-12.8479 89.5135 -9.40741 89.9004 -6.88758 89.7714C-5.81624 89.1294 -6.21021 87.0759 -8.37098 86.9573C-10.6384 86.8328 -12.4449 86.438 -13.8708 85.9618C-13.9386 85.9404 -14.006 85.9174 -14.0731 85.8928C-15.4958 85.3977 -16.5234 84.8267 -17.242 84.3828C-19.9832 82.8769 -22.9767 80.9957 -25.1828 79.0523C-27.3584 77.1638 -27.8222 75.0255 -27.7821 74.1924C-27.8717 74.8012 -27.9079 75.3717 -27.9017 75.9035C-27.8678 78.7716 -26.5977 80.5189 -25.7871 81.1215Z" fill="#FDC83E"/>
<path d="M-10.2537 85.4326C-10.1021 85.3196 -9.96672 85.2135 -9.84641 85.1147C-9.45065 84.7896 -9.60921 84.2263 -10.0892 84.0669C-22.9431 79.8002 -26.6712 73.7528 -26.9146 71.2073C-27.1875 71.8036 -27.4056 72.4133 -27.5558 73.0336C-27.6528 73.4342 -27.7274 73.8205 -27.7821 74.1924C-27.8222 75.0255 -27.3584 77.1638 -25.1828 79.0523C-22.9767 80.9957 -19.9832 82.8769 -17.242 84.3828C-16.2312 84.9381 -15.236 85.3961 -14.3285 85.7905C-14.2442 85.8272 -14.159 85.8613 -14.0731 85.8928C-14.0065 85.916 -13.9391 85.939 -13.8708 85.9618C-12.6458 86.3483 -11.3005 86.2133 -10.2537 85.4326Z" fill="black"/>
</g>
<defs>
<clipPath id="clip0_1_485">
<path d="M0 16C0 7.16344 7.16344 0 16 0H64C72.8366 0 80 7.16344 80 16V64C80 72.8366 72.8366 80 64 80H16C7.16344 80 0 72.8366 0 64V16Z" fill="white"/>
</clipPath>
</defs>
</svg>
