<svg width="80" height="80" viewBox="0 0 80 80" fill="none" xmlns="http://www.w3.org/2000/svg">
<path d="M0 16C0 7.16344 7.16344 0 16 0H64C72.8366 0 80 7.16344 80 16V64C80 72.8366 72.8366 80 64 80H16C7.16344 80 0 72.8366 0 64V16Z" fill="#30054E"/>
<path d="M54.9364 38.7753C54.6934 38.7752 54.4558 38.8472 54.2536 38.9821C54.0515 39.1171 53.8939 39.309 53.8008 39.5335C53.7077 39.758 53.6833 40.0051 53.7307 40.2435C53.7781 40.4819 53.8951 40.7009 54.0669 40.8728C54.2387 41.0447 54.4577 41.1618 54.6961 41.2093C54.9345 41.2567 55.1815 41.2324 55.4061 41.1394C55.6307 41.0464 55.8226 40.8889 55.9577 40.6868C56.0927 40.4847 56.1648 40.2471 56.1648 40.0041C56.1649 39.8427 56.1331 39.683 56.0714 39.5339C56.0097 39.3848 55.9192 39.2493 55.8052 39.1352C55.6911 39.0211 55.5557 38.9306 55.4066 38.8688C55.2576 38.8071 55.0978 38.7753 54.9364 38.7753Z" fill="white"/>
<path d="M25.0036 38.7753C24.7605 38.7752 24.5229 38.8472 24.3208 38.9821C24.1186 39.1171 23.961 39.309 23.868 39.5335C23.7749 39.758 23.7505 40.0051 23.7978 40.2435C23.8452 40.4819 23.9622 40.7009 24.134 40.8728C24.3059 41.0447 24.5248 41.1618 24.7632 41.2093C25.0016 41.2567 25.2487 41.2324 25.4733 41.1394C25.6978 41.0464 25.8898 40.8889 26.0248 40.6868C26.1598 40.4847 26.2319 40.2471 26.2319 40.0041C26.2322 39.8427 26.2006 39.6828 26.1389 39.5337C26.0773 39.3845 25.9868 39.2489 25.8727 39.1348C25.7586 39.0207 25.6231 38.9301 25.474 38.8684C25.3248 38.8067 25.165 38.7751 25.0036 38.7753Z" fill="white"/>
<path d="M41.8766 38.1092C40.0093 37.6484 38.8174 37.2495 38.3006 36.9125C38.0626 36.7736 37.8657 36.5741 37.7298 36.3344C37.594 36.0946 37.5242 35.8231 37.5274 35.5475C37.5188 35.2841 37.5714 35.0223 37.6812 34.7828C37.7911 34.5432 37.9551 34.3325 38.1603 34.1672C38.6589 33.7975 39.2712 33.6141 39.8909 33.6486C41.7106 33.6486 43.4743 34.2963 45.182 35.5918L47.6676 35.0593L47.4079 32.3866C46.3941 31.5375 45.2296 30.8868 43.9751 30.4686C42.708 30.027 41.3764 29.7988 40.0345 29.7933C38.0255 29.7933 36.3513 30.2998 35.012 31.3127C33.6726 32.3256 33.0011 33.7658 32.9974 35.6333C32.9974 37.4987 33.5281 38.8685 34.5895 39.7428C35.6509 40.617 37.3252 41.3259 39.6125 41.8693C41.0581 42.2265 42.0252 42.5781 42.5136 42.9242C42.7442 43.0782 42.9321 43.288 43.0597 43.5342C43.1873 43.7804 43.2505 44.0549 43.2434 44.3321C43.2526 44.605 43.1946 44.876 43.0746 45.1213C42.9546 45.3666 42.7762 45.5787 42.5551 45.739C41.9953 46.115 41.328 46.2977 40.6547 46.2595C38.8547 46.2595 36.896 45.3333 34.7788 43.481L34.7928 46.1564L32.1785 46.7034C34.6672 48.9963 37.4653 50.1427 40.5727 50.1427C42.7291 50.1427 44.4701 49.5938 45.7957 48.4961C46.4353 47.9827 46.9472 47.3282 47.2914 46.5838C47.6356 45.8394 47.8027 45.0255 47.7796 44.2057C47.7796 42.4407 47.2633 41.0989 46.2308 40.1802C45.1983 39.2615 43.7469 38.5712 41.8766 38.1092Z" fill="white"/>
<path d="M58.7292 36.9164L43.0861 21.2724C42.2664 20.4574 41.1574 20 40.0015 20C38.8456 20 37.7366 20.4574 36.9169 21.2724L21.2724 36.9164C20.4574 37.7361 20 38.8451 20 40.001C20 41.1569 20.4574 42.2659 21.2724 43.0857L36.9155 58.7269C37.735 59.5423 38.844 60 40.0001 60C41.1562 60 42.2652 59.5423 43.0847 58.7269L58.7264 43.0857C59.5416 42.2662 59.9995 41.1575 60 40.0016C60.0005 38.8457 59.5437 37.7366 58.7292 36.9164ZM34.7791 43.4783C36.8957 45.33 38.8544 46.2562 40.6551 46.2568C41.3282 46.295 41.9953 46.1122 42.555 45.7364C42.7761 45.576 42.9545 45.3639 43.0746 45.1187C43.1946 44.8734 43.2527 44.6024 43.2438 44.3294C43.2507 44.0522 43.1874 43.7777 43.0597 43.5315C42.9321 43.2853 42.7441 43.0755 42.5135 42.9215C42.0244 42.5761 41.0574 42.2245 39.6123 41.8666C37.3223 41.3226 35.6481 40.6137 34.5898 39.7401C33.5315 38.8665 33.0006 37.4967 32.9972 35.6307C32.9972 33.7653 33.6688 32.3251 35.0118 31.31C36.3549 30.2949 38.0292 29.7885 40.0348 29.7906C41.3773 29.7957 42.7097 30.0239 43.9773 30.4659C45.2321 30.8833 46.3972 31.5328 47.4119 32.3807L47.6675 35.0561L45.1819 35.5887C43.4779 34.2932 41.7146 33.6454 39.8921 33.6454C39.2724 33.6107 38.66 33.7942 38.1615 34.164C37.9564 34.3294 37.7925 34.5401 37.6827 34.7797C37.573 35.0193 37.5204 35.281 37.5292 35.5444C37.5257 35.82 37.5955 36.0917 37.7313 36.3316C37.8672 36.5715 38.0642 36.771 38.3024 36.9099C38.8181 37.2472 40.0101 37.6461 41.8783 38.1065C43.7465 38.5669 45.196 39.2562 46.227 40.1743C47.2591 41.0945 47.7754 42.4363 47.7757 44.1998C47.7988 45.0196 47.6317 45.8336 47.2874 46.578C46.9431 47.3224 46.4311 47.9769 45.7914 48.4901C44.4673 49.5891 42.7263 50.138 40.5683 50.1368C37.4615 50.1368 34.6635 48.9904 32.1741 46.6975L34.7964 46.1505L34.7791 43.4783Z" fill="#ED264F"/>
</svg>
