<svg width="64" height="64" viewBox="0 0 64 64" fill="none" xmlns="http://www.w3.org/2000/svg">
<path d="M39 52.5C39 55.5376 30.9411 58 21 58C11.0589 58 3 55.5376 3 52.5C3 49.4624 11.0589 47 21 47C30.9411 47 39 49.4624 39 52.5Z" fill="#EBE9F4"/>
<path fill-rule="evenodd" clip-rule="evenodd" d="M15.5191 48.4809C9.20114 42.1629 6.24964 34.871 8.92674 32.1939C11.6038 29.5168 18.8958 32.4683 25.2138 38.7862C31.5317 45.1042 34.4832 52.3962 31.8061 55.0733C29.129 57.7504 21.8371 54.7989 15.5191 48.4809ZM29.4794 52.7465C31.2998 50.9261 28.6956 45.3703 23.6626 40.3374C18.6297 35.3044 13.0739 32.7002 11.2535 34.5206C10.9161 34.858 10.7307 35.3237 10.6845 35.8906C10.4818 38.3825 12.9701 42.8296 17.0702 46.9297C21.1704 51.0299 25.6175 53.5182 28.1094 53.3155C28.6763 53.2693 29.142 53.0839 29.4794 52.7465Z" fill="#9D79F3"/>
<path d="M23.6626 40.3374C28.6956 45.3703 31.2998 50.9261 29.4794 52.7465C29.142 53.0839 28.6763 53.2693 28.1094 53.3155C28.3121 50.8236 25.8238 46.3765 21.7237 42.2763C17.6235 38.1762 13.1764 35.6879 10.6845 35.8906C10.7307 35.3237 10.9161 34.858 11.2535 34.5206C13.0739 32.7002 18.6297 35.3044 23.6626 40.3374Z" fill="#2D1270"/>
<path d="M8.92674 32.1939C6.24964 34.871 9.20114 42.1629 15.5191 48.4809C21.8371 54.7989 29.129 57.7504 31.8061 55.0733L29.8672 57.0122C27.1901 59.6893 19.8981 56.7378 13.5802 50.4198C7.26221 44.1019 4.31071 36.8099 6.98781 34.1328L8.92674 32.1939Z" fill="#4D25A7"/>
<path fill-rule="evenodd" clip-rule="evenodd" d="M20.5603 43.4397C14.2424 37.1217 11.2909 29.8298 13.968 27.1527C16.6451 24.4756 23.937 27.4271 30.255 33.7451C36.5729 40.063 39.5244 47.355 36.8473 50.0321C34.1702 52.7092 26.8783 49.7577 20.5603 43.4397ZM34.5206 47.7054C36.341 45.8849 33.7368 40.3292 28.7038 35.2962C23.6709 30.2633 18.1151 27.659 16.2947 29.4794C15.9573 29.8168 15.7719 30.2825 15.7257 30.8494C15.523 33.3413 18.0113 37.7884 22.1115 41.8886C26.2116 45.9887 30.6588 48.477 33.1506 48.2743C33.7175 48.2282 34.1832 48.0428 34.5206 47.7054Z" fill="#9D79F3"/>
<path d="M28.7038 35.2962C33.7368 40.3292 36.341 45.8849 34.5206 47.7054C34.1832 48.0428 33.7175 48.2282 33.1506 48.2743C33.3533 45.7824 30.865 41.3353 26.7649 37.2351C22.6647 33.135 18.2176 30.6467 15.7257 30.8494C15.7719 30.2825 15.9573 29.8168 16.2947 29.4794C18.1151 27.659 23.6709 30.2633 28.7038 35.2962Z" fill="#2D1270"/>
<path d="M13.968 27.1527C11.2909 29.8298 14.2424 37.1217 20.5603 43.4397C26.8783 49.7577 34.1702 52.7092 36.8473 50.0321L34.9084 51.971C32.2313 54.6481 24.9394 51.6966 18.6214 45.3786C12.3034 39.0607 9.35192 31.7687 12.029 29.0916L13.968 27.1527Z" fill="#4D25A7"/>
<path fill-rule="evenodd" clip-rule="evenodd" d="M25.6015 38.3985C19.2836 32.0805 16.3321 24.7885 19.0092 22.1114C21.6863 19.4343 28.9782 22.3858 35.2962 28.7038C41.6141 35.0218 44.5656 42.3137 41.8885 44.9908C39.2114 47.6679 31.9195 44.7164 25.6015 38.3985ZM39.5618 42.6641C41.3823 40.8437 38.778 35.2879 33.745 30.2549C28.7121 25.222 23.1563 22.6177 21.3359 24.4382C20.9985 24.7756 20.8131 25.2413 20.767 25.8082C20.5642 28.3 23.0525 32.7472 27.1527 36.8473C31.2528 40.9475 35.7 43.4358 38.1918 43.233C38.7587 43.1869 39.2244 43.0015 39.5618 42.6641Z" fill="#9D79F3"/>
<path d="M33.745 30.2549C38.778 35.2879 41.3823 40.8437 39.5618 42.6641C39.2244 43.0015 38.7587 43.1869 38.1918 43.233C38.3946 40.7412 35.9063 36.294 31.8061 32.1939C27.706 28.0937 23.2588 25.6054 20.767 25.8082C20.8131 25.2413 20.9985 24.7756 21.3359 24.4382C23.1563 22.6177 28.7121 25.222 33.745 30.2549Z" fill="#2D1270"/>
<path d="M19.0092 22.1114C16.3321 24.7885 19.2836 32.0805 25.6015 38.3985C31.9195 44.7164 39.2114 47.6679 41.8885 44.9908L39.9496 46.9298C37.2725 49.6069 29.9806 46.6553 23.6626 40.3374C17.3446 34.0194 14.3931 26.7275 17.0702 24.0504L19.0092 22.1114Z" fill="#4D25A7"/>
<path fill-rule="evenodd" clip-rule="evenodd" d="M30.6427 33.3573C24.3248 27.0393 21.3733 19.7474 24.0504 17.0703C26.7275 14.3932 34.0194 17.3447 40.3374 23.6626C46.6554 29.9806 49.6069 37.2725 46.9298 39.9496C44.2527 42.6268 36.9607 39.6753 30.6427 33.3573ZM44.603 37.6229C46.4235 35.8025 43.8192 30.2467 38.7863 25.2138C33.7533 20.1808 28.1975 17.5766 26.3771 19.397C26.0397 19.7344 25.8543 20.2001 25.8082 20.767C25.6054 23.2588 28.0937 27.706 32.1939 31.8061C36.294 35.9063 40.7412 38.3946 43.233 38.1919C43.7999 38.1457 44.2656 37.9603 44.603 37.6229Z" fill="#9D79F3"/>
<path d="M38.7863 25.2138C43.8192 30.2467 46.4235 35.8025 44.603 37.6229C44.2656 37.9603 43.7999 38.1457 43.233 38.1919C43.4358 35.7 40.9475 31.2529 36.8473 27.1527C32.7472 23.0525 28.3 20.5642 25.8082 20.767C25.8543 20.2001 26.0397 19.7344 26.3771 19.397C28.1975 17.5766 33.7533 20.1808 38.7863 25.2138Z" fill="#2D1270"/>
<path d="M24.0504 17.0703C21.3733 19.7474 24.3248 27.0393 30.6427 33.3573C36.9607 39.6753 44.2527 42.6268 46.9298 39.9496L44.9908 41.8886C42.3137 44.5657 35.0218 41.6142 28.7038 35.2962C22.3859 28.9782 19.4344 21.6863 22.1115 19.0092L24.0504 17.0703Z" fill="#4D25A7"/>
<path fill-rule="evenodd" clip-rule="evenodd" d="M35.684 28.316C29.366 21.9981 26.4145 14.7061 29.0916 12.029C31.7687 9.3519 39.0607 12.3034 45.3786 18.6214C51.6966 24.9393 54.6481 32.2313 51.971 34.9084C49.2939 37.5855 42.0019 34.634 35.684 28.316ZM49.6443 32.5817C51.4647 30.7612 48.8604 25.2055 43.8275 20.1725C38.7945 15.1396 33.2388 12.5353 31.4183 14.3557C31.0809 14.6931 30.8955 15.1588 30.8494 15.7257C30.6467 18.2176 33.135 22.6647 37.2351 26.7649C41.3353 30.865 45.7824 33.3533 48.2743 33.1506C48.8412 33.1045 49.3069 32.9191 49.6443 32.5817Z" fill="#9D79F3"/>
<path d="M43.8275 20.1725C48.8604 25.2055 51.4647 30.7612 49.6443 32.5817C49.3069 32.9191 48.8412 33.1045 48.2743 33.1506C48.477 30.6587 45.9887 26.2116 41.8885 22.1114C37.7884 18.0113 33.3413 15.523 30.8494 15.7257C30.8955 15.1588 31.0809 14.6931 31.4183 14.3557C33.2388 12.5353 38.7945 15.1396 43.8275 20.1725Z" fill="#2D1270"/>
<path d="M29.0916 12.029C26.4145 14.7061 29.366 21.9981 35.684 28.316C42.0019 34.634 49.2939 37.5855 51.971 34.9084L50.0321 36.8473C47.3549 39.5244 40.063 36.5729 33.745 30.2549C27.4271 23.937 24.4756 16.645 27.1527 13.9679L29.0916 12.029Z" fill="#4D25A7"/>
<path fill-rule="evenodd" clip-rule="evenodd" d="M40.7252 23.2748C34.4072 16.9569 31.4557 9.66492 34.1328 6.98781C36.8099 4.31071 44.1019 7.26221 50.4198 13.5802C56.7378 19.8981 59.6893 27.1901 57.0122 29.8672C54.3351 32.5443 47.0431 29.5928 40.7252 23.2748ZM54.6855 27.5405C56.5059 25.72 53.9016 20.1643 48.8687 15.1313C43.8357 10.0984 38.28 7.4941 36.4595 9.31453C36.1221 9.65193 35.9367 10.1176 35.8906 10.6845C35.6879 13.1764 38.1762 17.6235 42.2763 21.7237C46.3765 25.8238 50.8236 28.3121 53.3155 28.1094C53.8824 28.0633 54.3481 27.8779 54.6855 27.5405Z" fill="#9D79F3"/>
<path d="M48.8687 15.1313C53.9016 20.1643 56.5059 25.72 54.6855 27.5405C54.3481 27.8779 53.8824 28.0633 53.3155 28.1094C53.5182 25.6175 51.0299 21.1704 46.9298 17.0703C42.8296 12.9701 38.3825 10.4818 35.8906 10.6845C35.9367 10.1176 36.1221 9.65193 36.4595 9.31453C38.28 7.4941 43.8357 10.0984 48.8687 15.1313Z" fill="#2D1270"/>
<path d="M34.1328 6.98781C31.4557 9.66492 34.4072 16.9569 40.7252 23.2748C47.0431 29.5928 54.3351 32.5443 57.0122 29.8672L55.0733 31.8061C52.3962 34.4832 45.1042 31.5317 38.7863 25.2138C32.4683 18.8958 29.5168 11.6038 32.1939 8.92674L34.1328 6.98781Z" fill="#4D25A7"/>
</svg>
