<svg width="80" height="80" viewBox="0 0 80 80" fill="none" xmlns="http://www.w3.org/2000/svg">
<g clip-path="url(#clip0_1_446)">
<g opacity="0.4">
<path d="M45.2059 59.7968L44.1048 59.0311C42.0608 57.6098 41.6205 54.7681 43.1386 52.7949L46.7255 48.1328C47.5958 47.0016 48.9648 46.3682 50.3904 46.4371L80.4731 47.891C83.8923 48.0563 85.7952 51.9179 83.8431 54.7299L82.4329 56.7614C81.6729 57.8562 80.4538 58.5431 79.1237 58.626L47.9654 60.5684C46.9849 60.6296 46.0125 60.3577 45.2059 59.7968Z" fill="#786D82" fill-opacity="0.3"/>
<path d="M44.9639 60.1282L44.7231 59.9467C42.4879 58.2616 42.3979 54.9365 44.5387 53.133L49.8439 48.6638C50.6939 47.9477 51.7854 47.5834 52.8951 47.6454L77.3293 49.0105C80.4775 49.1864 82.1662 52.7933 80.285 55.3239C79.6518 56.1757 78.703 56.7375 77.6516 56.8831L48.1858 60.9652C47.0434 61.1235 45.8848 60.8225 44.9639 60.1282Z" fill="#786D82" fill-opacity="0.3"/>
</g>
<path d="M47.3055 60.8471L40.0413 56.4886V29.3858L47.3055 33.7443V60.8471Z" fill="#AEAEAE"/>
<path d="M61.834 50.6772L47.3055 60.8471V33.7443L61.834 23.5744L61.834 50.6772Z" fill="#D2D6D5"/>
<path d="M54.5698 19.2159L61.834 23.5744L47.3055 33.7443L40.0413 29.3858L54.5698 19.2159Z" fill="#EBF2F2"/>
<path d="M58.0271 29.2933L51.495 33.915L54.512 35.3345L61.0441 30.7128L58.0271 29.2933Z" fill="#01B088"/>
<path d="M53.019 46.2502L54.512 35.3345L51.495 33.915L50.002 44.8306L51.9426 45.7437L53.019 46.2502Z" fill="#01B088"/>
<path d="M57.8714 39.8163L61.0441 37.5714L58.9681 36.6694L57.8714 39.8163Z" fill="#01B088"/>
<path fill-rule="evenodd" clip-rule="evenodd" d="M61.0441 37.5714L53.5789 54.6416L55.4452 44.5335L53.019 46.2502L54.512 35.3345L61.0441 30.7128L58.9681 36.6694L57.8714 39.8163L61.0441 37.5714Z" fill="#00E2AE"/>
<path d="M53.5789 54.6416L55.4452 44.5335L53.019 46.2502L51.9426 45.7437L50.5618 53.2221L53.5789 54.6416Z" fill="#01B088"/>
<path d="M52.1459 22.0339V16.1542L54.3085 17.4517V23.3314L52.1459 22.0339Z" fill="#4A4D5D"/>
<path d="M59.1816 14.0856L59.1816 19.9653L54.3085 23.3314V17.4517L56.7451 15.7687L59.1816 14.0856Z" fill="#595F74"/>
<path d="M57.0191 12.7881L59.1816 14.0856L56.7451 15.7687L54.3085 17.4517L52.1459 16.1542L57.0191 12.7881Z" fill="#6A6F89"/>
<path d="M47.9708 30.8958L43.6457 28.3008V20.2327L47.9708 22.8277V30.8958Z" fill="#AEAEAE"/>
<path d="M56.6211 24.8407L47.9708 30.8958V22.8277L56.6211 16.7726L56.6211 24.8407Z" fill="#D2D6D5"/>
<path d="M52.296 14.1775L56.6211 16.7726L47.9708 22.8277L43.6457 20.2327L52.296 14.1775Z" fill="#EBF2F2"/>
<path d="M7.9543 56.1393L5.79173 54.8418V48.9621L7.9543 50.2596V56.1393Z" fill="#D2D6D5"/>
<path d="M7.9543 56.1393V50.2596L46.9395 23.3307L46.9395 29.2104L7.9543 56.1393Z" fill="#D9D9D9"/>
<path d="M5.79173 48.9621L44.7769 22.0332L46.9395 23.3307L7.9543 50.2596L5.79173 48.9621Z" fill="#EBF2F2"/>
<mask id="mask0_1_446" style="mask-type:alpha" maskUnits="userSpaceOnUse" x="7" y="23" width="40" height="34">
<path d="M7.9543 56.1406V50.2609L46.9395 23.332L46.9395 29.2117L7.9543 56.1406Z" fill="#D9D9D9"/>
</mask>
<g mask="url(#mask0_1_446)">
<rect width="4.32164" height="32.3655" transform="matrix(-1 0 0 1 44.6543 11.5859)" fill="#EA4D3B"/>
<rect width="4.32164" height="32.3655" transform="matrix(-1 0 0 1 36.4512 17.6953)" fill="#EA4D3B"/>
<rect width="4.32164" height="32.3655" transform="matrix(-1 0 0 1 28.248 23.5986)" fill="#EA4D3B"/>
<rect width="4.32164" height="32.3655" transform="matrix(-1 0 0 1 20.0449 29.5029)" fill="#EA4D3B"/>
<rect width="4.32164" height="32.3655" transform="matrix(-1 0 0 1 11.8418 35.4062)" fill="#EA4D3B"/>
</g>
<mask id="mask1_1_446" style="mask-type:alpha" maskUnits="userSpaceOnUse" x="5" y="22" width="42" height="29">
<path d="M5.79173 48.9621L44.7769 22.0332L46.9395 23.3307L7.9543 50.2596L5.79173 48.9621Z" fill="#00FFFF"/>
</mask>
<g mask="url(#mask1_1_446)">
<rect x="61.7715" y="34.6758" width="4.73676" height="35.4744" transform="rotate(119.724 61.7715 34.6758)" fill="#FE7D6F"/>
<rect x="51.498" y="39.1631" width="4.73676" height="35.4744" transform="rotate(119.724 51.498 39.1631)" fill="#FE7D6F"/>
<rect x="41.4199" y="43.7637" width="4.73676" height="35.4744" transform="rotate(119.724 41.4199 43.7637)" fill="#FE7D6F"/>
<rect x="31.3418" y="48.3633" width="4.73676" height="35.4744" transform="rotate(119.724 31.3418 48.3633)" fill="#FE7D6F"/>
<rect x="21.2656" y="52.9639" width="4.73676" height="35.4744" transform="rotate(119.724 21.2656 52.9639)" fill="#FE7D6F"/>
</g>
<path d="M52.2231 21.2648C53.4086 20.4867 53.8457 21.7832 53.8457 22.617C53.8457 23.4507 53.3826 25.3565 52.2231 26.1326C51.0636 26.9087 50.6005 25.5917 50.6005 24.7804C50.6005 23.9692 51.0376 22.0429 52.2231 21.2648Z" fill="#6A6F89"/>
<path d="M53.1281 21.0605L53.7949 21.3798L53.4259 22.0382L52.8071 21.4195L53.1281 21.0605Z" fill="#6A6F89"/>
<path d="M51.3587 25.7833L52.0981 25.8439L51.8829 26.6009L51.2359 26.2831L51.3587 25.7833Z" fill="#6A6F89"/>
<path d="M52.8012 21.5443C53.9867 20.7662 54.4238 22.0628 54.4238 22.8965C54.4238 23.7302 53.9607 25.636 52.8012 26.4121C51.6417 27.1882 51.1786 25.8712 51.1786 25.06C51.1786 24.2488 51.6157 22.3224 52.8012 21.5443Z" fill="#595F74"/>
</g>
<defs>
<clipPath id="clip0_1_446">
<path d="M0 16C0 7.16344 7.16344 0 16 0H64C72.8366 0 80 7.16344 80 16V64C80 72.8366 72.8366 80 64 80H16C7.16344 80 0 72.8366 0 64V16Z" fill="white"/>
</clipPath>
</defs>
</svg>
