<svg width="110" height="80" viewBox="0 0 110 80" fill="none" xmlns="http://www.w3.org/2000/svg">
<path opacity="0.1" d="M51.7805 76.0007L84.2657 54.4163C85.5616 53.5552 85.4212 51.6092 84.0151 50.9431L67.8696 43.2939C67.2724 43.0109 66.5739 43.0413 66.0034 43.375L31.6821 63.4531C30.4111 64.1966 30.3523 66.0124 31.5725 66.8367L45.1016 75.9752C47.117 77.3366 49.7548 77.3466 51.7805 76.0007Z" fill="black"/>
<path opacity="0.1" d="M48.6232 74.9826L80.463 54.0818C81.7764 53.2196 81.6286 51.2493 80.2012 50.5928L65.8491 43.9918C65.2871 43.7333 64.6371 43.7494 64.0886 44.0355L28.7656 62.4558C27.4221 63.1565 27.3153 65.0384 28.5709 65.8865L41.9722 74.9388C43.9775 76.2933 46.6002 76.3106 48.6232 74.9826Z" fill="black"/>
<path d="M72.0527 68.9066L69.1818 70.6261L43.8281 55.3993L46.699 53.6797L72.0527 68.9066Z" fill="#D0B7FA"/>
<path d="M49.9514 53.1231L43.3994 57.0243C43.0658 57.2223 42.6478 57.2223 42.3141 57.0243L35.7585 53.1231C35.4138 52.9178 35.4138 52.4228 35.7585 52.2175L38.028 50.8646L40.5506 49.365L42.5855 48.1514C42.7505 48.0524 42.9594 48.0524 43.1244 48.1514L49.9514 52.2175C50.2961 52.4228 50.2961 52.9178 49.9514 53.1231Z" fill="#D0B7FA"/>
<path d="M46.5039 18.4131V34.0867L42.5039 35.4131V19.7942L46.5039 18.4131Z" fill="#FFCD00"/>
<path d="M42.5039 19.7481V35.4131L42.4606 35.3939L39.5039 34.0589V18.4131L42.5039 19.7481Z" fill="#FFB000"/>
<path d="M46.9906 16.5609V16.6719L42.5037 19.0797L38.1406 16.5438L42.5037 13.9951L46.9906 16.5609Z" fill="#FEF5D0"/>
<path d="M42.5048 19.0789V21.4696L38.9529 19.3862L38.0137 18.8312L38.0649 16.5899L38.1417 16.543L42.5048 19.0789Z" fill="#F6C475"/>
<path d="M46.9908 16.6709V18.8012L46.1242 19.3135L42.5039 21.4694V19.0787L46.9908 16.6709Z" fill="#FBE179"/>
<path d="M46.0818 33.5811V52.6907C46.0818 52.7787 46.0342 52.8631 45.9572 52.9071L42.9727 54.6156V35.3593L46.0818 33.5811Z" fill="#D0B7FA"/>
<path d="M42.9726 35.4143V54.6156L42.9286 54.6413L40.0468 52.9254C39.9698 52.8814 39.9258 52.797 39.9258 52.709V33.5957L42.9286 35.3849L42.9726 35.4106V35.4143Z" fill="#A272F7"/>
<path d="M41.3476 51.1905V53.6213C41.3476 53.6397 41.3366 53.658 41.3183 53.669L39.7307 54.5343C39.683 54.56 39.6317 54.5123 39.6537 54.461L41.2413 51.1611C41.2669 51.1098 41.3439 51.1281 41.3439 51.1831V51.1905H41.3476Z" fill="#D0B7FA"/>
<path d="M44.6052 51.1281V53.6653C44.6052 53.6653 44.6126 53.6947 44.6236 53.702L45.9838 54.5343C46.0168 54.5563 46.0608 54.5196 46.0425 54.483L44.6822 51.1135C44.6639 51.0695 44.6016 51.0841 44.6016 51.1281H44.6052Z" fill="#A272F7"/>
<path d="M70.8212 48.8117V51.8182L67 49.527L51 40.0934L42.9629 35.3392L45.5368 33.8652L53.3772 38.5L69.5 48L70.8212 48.8117Z" fill="black"/>
<path d="M60.5 53.7649L67 49.527L51 40.0934L44 44.5L60.5 53.7649Z" fill="black"/>
<path d="M69.5 48L72 46.2649L56 37L53.3772 38.5L69.5 48Z" fill="black"/>
<path fill-rule="evenodd" clip-rule="evenodd" d="M65.0095 31.4318C59.096 36.6039 56.7025 42.7184 56.2449 45.1291C65.6219 40.483 72.8237 33.6234 75.2524 30.7744C75.5058 28.7581 75.358 27.5236 75.2524 27.1583C71.7888 27.0582 66.9806 29.9656 65.0095 31.4318ZM51.2818 48.526L40.8277 52.2517L42.1563 52.6602C43.1674 52.9711 44.2114 53.1488 45.2644 53.1893C46.0831 53.2207 46.8872 52.9561 47.5419 52.4398L47.9701 52.1021C48.7674 51.4733 49.4942 50.752 50.1367 49.9519L51.2818 48.526Z" fill="#FDC83E"/>
<path fill-rule="evenodd" clip-rule="evenodd" d="M52.5942 59.4526C54.4858 58.6194 56.2223 56.2281 56.4727 54.1116C56.6037 53.0046 56.3023 52.192 55.7143 51.7878C55.6481 51.7423 55.5782 51.702 55.5049 51.667C54.9847 51.4186 54.2919 51.4395 53.5011 51.7878C51.6095 52.6211 49.873 55.0123 49.6225 57.1289C49.4915 58.2359 49.793 59.0485 50.381 59.4526C50.9172 59.8212 51.6919 59.8501 52.5942 59.4526ZM53.2343 54.0422C54.0133 53.6991 54.5611 54.1275 54.458 54.9991C54.3548 55.8706 53.6398 56.8552 52.8609 57.1983C52.082 57.5414 51.5342 57.113 51.6373 56.2415C51.7404 55.37 52.4554 54.3853 53.2343 54.0422Z" fill="black"/>
<path fill-rule="evenodd" clip-rule="evenodd" d="M79.6279 43.5638C81.5196 42.7306 83.256 40.3393 83.5065 38.2227C83.6375 37.1158 83.336 36.3032 82.748 35.899C82.6818 35.8535 82.6119 35.8131 82.5386 35.7781C82.0185 35.5298 81.3257 35.5507 80.5348 35.899C78.6432 36.7322 76.9067 39.1235 76.6563 41.2401C76.5417 42.2081 76.7579 42.951 77.2072 43.3926L77.4147 43.5638C77.951 43.9324 78.7256 43.9612 79.6279 43.5638ZM80.2681 38.1534C81.047 37.8103 81.5948 38.2387 81.4917 39.1102C81.3886 39.9818 80.6736 40.9664 79.8947 41.3095C79.1157 41.6526 78.5679 41.2242 78.671 40.3527C78.7742 39.4811 79.4892 38.4965 80.2681 38.1534Z" fill="black"/>
<path d="M56.2449 45.1291C56.7025 42.7184 59.096 36.6039 65.0095 31.4318C66.9806 29.9656 71.7888 27.0582 75.2524 27.1583C75.358 27.5236 75.5058 28.7581 75.2524 30.7744C72.8237 33.6234 65.6219 40.483 56.2449 45.1291Z" fill="black"/>
<path d="M53.4993 45.1291L60.68 34.0617C58.0991 32.7833 52.0433 29.4814 48.4665 26.5008C48.1448 26.736 47.8501 26.9563 47.5859 27.1583L43.4815 30.8386L41.1556 32.8564L38.1877 35.4862C37.343 36.9107 37.8709 39.2119 43.6788 43.0471C48.3251 46.1153 52.1618 45.7135 53.4993 45.1291Z" fill="black"/>
<path d="M66.8046 18.2825C69.019 19.3851 74.6955 22.4915 77.9371 26.9264C77.9979 27.0096 78.2094 27.1857 78.4496 27.2511C78.4687 27.2563 78.488 27.2607 78.5074 27.2644C79.2753 27.4105 80.6944 27.4432 81.8426 26.8296C76.2464 21.653 70.1492 19.2848 66.8046 18.2825Z" fill="black"/>
<path d="M84.017 30.7744C84.5238 28.6705 83.2426 27.7062 82.5386 27.487C81.9754 27.9619 80.8702 29.2841 80.9547 30.7744C81.4474 31.0666 82.7498 31.4757 84.017 30.7744Z" fill="#ED264F"/>
<path d="M42.9778 29.926C42.7421 29.5727 42.2759 29.4669 41.9541 29.7352C40.7611 30.7302 40.906 31.9296 41.1556 32.8564L43.4815 30.8386C43.3705 30.5475 43.1712 30.2159 42.9778 29.926Z" fill="#FDC83E"/>
<path d="M40.8277 52.2517L51.2818 48.526L50.1367 49.9519C49.4942 50.752 48.7674 51.4733 47.9701 52.1021L47.5419 52.4398C46.8872 52.9561 46.0831 53.2207 45.2644 53.1893C44.2114 53.1488 43.1674 52.9711 42.1563 52.6602L40.8277 52.2517Z" fill="white"/>
<path d="M49.6225 57.1289C49.873 55.0123 51.6095 52.6211 53.5011 51.7878C54.2919 51.4395 54.9847 51.4186 55.5049 51.667C55.5782 51.702 55.6481 51.7423 55.7143 51.7878C55.4889 51.4935 54.7937 50.8205 53.8161 50.4825C51.3996 51.3052 48.673 54.425 48.4481 57.8402C48.969 58.6291 49.9537 59.2439 50.381 59.4526C49.793 59.0485 49.4915 58.2359 49.6225 57.1289Z" fill="black"/>
<path d="M54.458 54.9991C54.5611 54.1275 54.0133 53.6991 53.2343 54.0422C52.4554 54.3853 51.7404 55.37 51.6373 56.2415C51.5342 57.113 52.082 57.5414 52.8609 57.1983C53.6398 56.8552 54.3548 55.8706 54.458 54.9991Z" fill="white"/>
<path d="M81.4917 39.1102C81.5948 38.2387 81.047 37.8103 80.2681 38.1534C79.4892 38.4965 78.7742 39.4811 78.671 40.3527C78.5679 41.2242 79.1157 41.6526 79.8947 41.3095C80.6736 40.9664 81.3886 39.9818 81.4917 39.1102Z" fill="white"/>
<path d="M76.6563 41.2401C76.9067 39.1235 78.6432 36.7322 80.5348 35.899C81.3257 35.5507 82.0185 35.5298 82.5386 35.7781C82.6119 35.8131 82.6818 35.8535 82.748 35.899C82.5374 35.5668 81.8417 34.7964 80.7435 34.3725C78.2656 35.2649 75.6366 38.829 75.9916 42.3897L77.2072 43.3926C76.7579 42.951 76.5417 42.2081 76.6563 41.2401Z" fill="black"/>
<path d="M32.2743 46.5536L32.5911 39.8427C31.892 40.531 31.2238 41.2743 30.6407 42.0609C30.4045 43.1721 30.6501 44.3359 31.3115 45.239L31.6678 45.7255L32.2743 46.5536Z" fill="white"/>
<path d="M83.5363 37.7877C83.7827 36.5458 83.9747 34.3466 82.1162 34.1713C81.6784 34.13 81.2136 34.2031 80.7435 34.3725C81.8417 34.7964 82.5374 35.5668 82.748 35.899C83.2561 36.2482 83.5502 36.9023 83.5363 37.7877Z" fill="#A0770D"/>
<path d="M56.7729 54.5528C57.0897 53.2014 57.5543 50.4546 55.1889 50.2793C54.7578 50.2473 54.293 50.3202 53.8161 50.4825C54.7937 50.8205 55.4889 51.4935 55.7143 51.7878C56.3023 52.192 56.6037 53.0046 56.4727 54.1116L56.7729 54.5528Z" fill="#A0770D"/>
<path fill-rule="evenodd" clip-rule="evenodd" d="M31.6678 45.7255C31.8418 46.0014 32.0428 46.279 32.2743 46.5536C34.1365 48.9455 38.7525 51.3489 40.8277 52.2517L51.2818 48.526C51.6825 47.9155 52.6869 46.3813 53.4993 45.1291C52.1618 45.7135 48.3251 46.1153 43.6788 43.0471C37.8709 39.2119 37.343 36.9107 38.1877 35.4862C36.982 36.2607 34.6526 37.8127 32.5911 39.8427L32.2743 46.5536L31.6678 45.7255Z" fill="#FDC83E"/>
<path fill-rule="evenodd" clip-rule="evenodd" d="M65.0095 31.4318C59.096 36.6039 56.7025 42.7184 56.2449 45.1291C65.6219 40.483 72.8237 33.6234 75.2524 30.7744C75.5058 28.7581 75.358 27.5236 75.2524 27.1583C71.7888 27.0582 66.9806 29.9656 65.0095 31.4318Z" fill="black"/>
<path d="M66.8046 18.2825C65.8629 17.8069 64.7761 17.7422 63.7775 18.0664C58.3577 19.8263 51.8847 24.0026 48.4665 26.5008C52.0433 29.4814 58.0991 32.7833 60.68 34.0617C63.0751 31.4349 69.3118 26.1814 75.0978 26.1814C75.8317 26.1501 77.3208 26.2668 77.9371 26.9264C74.6955 22.4915 69.019 19.3851 66.8046 18.2825Z" fill="#FDC83E"/>
<path fill-rule="evenodd" clip-rule="evenodd" d="M83.5363 37.7877C84.9724 35.2454 84.5098 32.0163 84.017 30.7744C82.7498 31.4757 81.4474 31.0666 80.9547 30.7744C80.8702 29.2841 81.9754 27.9619 82.5386 27.487C82.3067 27.2633 82.0746 27.0442 81.8426 26.8296C80.6944 27.4432 79.2753 27.4105 78.5074 27.2644C78.488 27.2607 78.4687 27.2563 78.4496 27.2511C78.2685 27.2021 78.0496 27.0802 77.9371 26.9264C77.3208 26.2668 75.8317 26.1501 75.0978 26.1814C69.3118 26.1814 63.0751 31.4349 60.68 34.0617L53.4993 45.1291C52.6869 46.3813 51.6825 47.9155 51.2818 48.526L50.1367 49.9519C49.4942 50.752 48.7674 51.4733 47.9701 52.1021L47.5419 52.4398C46.8872 52.9561 46.0831 53.2207 45.2644 53.1893C44.2114 53.1488 43.1674 52.9711 42.1563 52.6602L40.8277 52.2517C38.7525 51.3489 34.1365 48.9455 32.2743 46.5536C32.0428 46.279 31.8418 46.0014 31.6678 45.7255L31.3115 45.239C30.6501 44.3359 30.4045 43.1721 30.6407 42.0609C30.5121 42.2343 30.3877 42.4098 30.268 42.5873C29.9051 43.1253 29.5856 43.6816 29.3256 44.2525C29.529 46.3907 32.645 51.4705 43.3886 55.0546C43.7898 55.1884 43.9223 55.6616 43.5915 55.9346C43.491 56.0176 43.3778 56.1068 43.2511 56.2017C42.3762 56.8575 41.2517 56.9709 40.2279 56.6462C41.4196 57.0462 42.9296 57.3779 44.8247 57.4824C46.6307 57.5821 46.96 59.307 46.0646 59.8462C47.1329 59.7912 48.0032 59.6247 48.5363 59.4526C48.4389 58.913 48.4131 58.373 48.4481 57.8402C48.673 54.425 51.3996 51.3052 53.8161 50.4825C54.293 50.3202 54.7578 50.2473 55.1889 50.2793C57.5543 50.4546 57.0897 53.2014 56.7729 54.5528L75.9916 42.3897C75.6366 38.829 78.2656 35.2649 80.7435 34.3725C81.2136 34.2031 81.6784 34.13 82.1162 34.1713C83.9747 34.3466 83.7827 36.5458 83.5363 37.7877ZM65.0095 31.4318C59.096 36.6039 56.7025 42.7184 56.2449 45.1291C65.6219 40.483 72.8237 33.6234 75.2524 30.7744C75.5058 28.7581 75.358 27.5236 75.2524 27.1583C71.7888 27.0582 66.9806 29.9656 65.0095 31.4318Z" fill="#CD9F2E"/>
<path d="M30.268 52.5804C31.3944 53.4205 34.6186 55.6924 38.5046 58.0593C41.0828 59.6297 43.9585 59.9547 46.0646 59.8462C46.96 59.307 46.6307 57.5821 44.8247 57.4824C42.9296 57.3779 41.4196 57.0462 40.2279 56.6462C40.1712 56.6282 40.1148 56.6089 40.0588 56.5883C38.8697 56.1724 38.0107 55.6928 37.4101 55.3199C35.1189 54.0549 32.617 52.4747 30.7731 50.8422C28.9546 49.2559 28.567 47.4597 28.6005 46.7599C28.5256 47.2713 28.4953 47.7505 28.5006 48.1973C28.5289 50.6065 29.5904 52.0742 30.268 52.5804Z" fill="#FDC83E"/>
<path d="M43.2511 56.2017C43.3778 56.1068 43.491 56.0176 43.5915 55.9346C43.9223 55.6616 43.7898 55.1884 43.3886 55.0546C32.645 51.4705 29.529 46.3907 29.3256 44.2525C29.0975 44.7533 28.9152 45.2655 28.7896 45.7866C28.7086 46.123 28.6462 46.4475 28.6005 46.7599C28.567 47.4597 28.9546 49.2559 30.7731 50.8422C32.617 52.4747 35.1189 54.0549 37.4101 55.3199C38.2549 55.7863 39.0868 56.171 39.8453 56.5024C39.9158 56.5332 39.987 56.5618 40.0588 56.5883C40.1144 56.6077 40.1708 56.627 40.2279 56.6462C41.2517 56.9709 42.3762 56.8575 43.2511 56.2017Z" fill="black"/>
<path d="M80.2405 71.8995L73.6885 75.8006C73.3548 75.9986 72.9369 75.9986 72.6032 75.8006L66.0475 71.8995C65.7029 71.6942 65.7029 71.1992 66.0475 70.9939L68.3171 69.641L70.8396 68.1414L72.8745 66.9278C73.0395 66.8288 73.2485 66.8288 73.4135 66.9278L80.2405 70.9939C80.5851 71.1992 80.5851 71.6942 80.2405 71.8995Z" fill="#D0B7FA"/>
<path d="M76.293 35.1904V52.708L73.293 54.1904V36.734L76.293 35.1904Z" fill="#FFCD00"/>
<path d="M73.293 36.6825V54.1904L73.2497 54.169L70.293 52.6769V35.1904L73.293 36.6825Z" fill="#FFB000"/>
<path d="M77.1162 32.9789V33.0743L73.2628 35.1422L69.5156 32.9643L73.2628 30.7754L77.1162 32.9789Z" fill="#FEF5D0"/>
<path d="M73.2634 35.1427V37.196L70.2129 35.4067L69.4062 34.9301L69.4502 33.0052L69.5162 32.9648L73.2634 35.1427Z" fill="#F6C475"/>
<path d="M77.1152 33.0752V34.9048L76.3709 35.3447L73.2617 37.1963V35.1431L77.1152 33.0752Z" fill="#FBE179"/>
<path d="M76.3709 52.3564V71.4661C76.3709 71.5541 76.3232 71.6385 76.2462 71.6824L73.2617 73.391V54.1347L76.3709 52.3564Z" fill="#D0B7FA"/>
<path d="M73.2617 54.1897V73.391L73.2177 73.4167L70.3358 71.7008C70.2588 71.6568 70.2148 71.5724 70.2148 71.4844V52.3711L73.2177 54.1603L73.2617 54.186V54.1897Z" fill="#A272F7"/>
<path d="M71.6347 69.9678V72.3987C71.6347 72.417 71.6237 72.4354 71.6054 72.4464L70.0178 73.3116C69.9701 73.3373 69.9188 73.2896 69.9408 73.2383L71.5284 69.9385C71.554 69.8872 71.631 69.9055 71.631 69.9605V69.9678H71.6347Z" fill="#D0B7FA"/>
<path d="M74.8923 69.9055V72.4427C74.8923 72.4427 74.8997 72.472 74.9107 72.4794L76.2709 73.3116C76.3039 73.3336 76.3479 73.297 76.3296 73.2603L74.9693 69.8908C74.951 69.8468 74.8887 69.8615 74.8887 69.9055H74.8923Z" fill="#A272F7"/>
</svg>
