<svg width="110" height="80" viewBox="0 0 110 80" fill="none" xmlns="http://www.w3.org/2000/svg">
<path d="M62.9877 63.6439V37.3795C62.9877 36.5053 62.5362 35.6946 61.7968 35.2411L38.864 21.1766C38.0876 20.7004 37.6897 19.8983 37.6736 19.0889L37.625 47.9351C37.625 49.0454 38.2075 50.0724 39.1555 50.6333L62.0566 64.1836C62.2746 64.3125 62.5223 64.2893 62.7074 64.1675C62.8724 64.0588 62.9877 63.8716 62.9877 63.6439Z" fill="#B37ABC"/>
<path d="M62.9877 37.3795V63.6439C62.9877 63.8716 62.8724 64.0588 62.7074 64.1675L63.9432 63.3562C64.1189 63.2409 64.2249 63.0435 64.2249 62.8318V61.2954V36.7438C64.2249 35.8753 63.7791 35.0689 63.0473 34.6137L41.0138 20.9082L40.0994 20.3394C39.0276 19.7977 38.9697 18.2734 39.9972 17.6502L40.1176 17.5772C41.4458 16.7716 43.0987 16.7446 44.452 17.5063L68.2124 30.8794C68.9968 31.3208 69.483 32.1571 69.483 33.0646V59.8144C69.483 60.0338 69.3768 60.2143 69.2227 60.3243L70.419 59.6016C70.6058 59.4887 70.7202 59.2849 70.7202 59.0649V32.1298C70.7202 31.2207 70.2322 30.3831 69.4455 29.9423L45.4816 16.5145C43.4989 15.4036 41.0738 15.4778 39.1613 16.708L38.8191 16.9282C38.0378 17.4307 37.6572 18.2636 37.6736 19.0889C37.6897 19.8983 38.0876 20.7004 38.864 21.1766L61.7968 35.2411C62.5362 35.6946 62.9877 36.5053 62.9877 37.3795Z" fill="#733EA1"/>
<path d="M69.483 59.8144V33.0646C69.483 32.1571 68.9968 31.3208 68.2124 30.8794L44.452 17.5063C43.0987 16.7446 41.4458 16.7716 40.1176 17.5772L39.9972 17.6502C38.9697 18.2734 39.0276 19.7977 40.0994 20.3394C39.4808 19.7142 39.837 18.7491 40.4087 18.4636C41.5679 17.8777 42.9402 17.9172 44.0646 18.5686L67.6272 32.2198V59.4196L68.4769 60.2892C68.5064 60.3195 68.5384 60.3475 68.5755 60.3675C68.7622 60.4683 68.9703 60.4598 69.1401 60.3742L69.2227 60.3243C69.3768 60.2143 69.483 60.0338 69.483 59.8144Z" fill="#B37ABC"/>
<path d="M67.6272 32.2198L44.0646 18.5686C42.9402 17.9172 41.5679 17.8777 40.4087 18.4636C39.837 18.7491 39.4808 19.7142 40.0994 20.3394L41.0138 20.9082L63.0473 34.6137L64.6774 33.7617L66.3075 32.9096L67.6272 32.2198Z" fill="#00E2AE"/>
<path d="M67.6272 59.4196V32.2198L66.3075 32.9096L64.6774 33.7617L63.0473 34.6137C63.7791 35.0689 64.2249 35.8753 64.2249 36.7438V61.2954L64.6774 61.0459L66.3075 60.1472L67.6272 59.4196Z" fill="#01B088"/>
<path d="M66.6128 45.7881C65.205 46.6346 63.4198 46.6591 61.9876 45.8508L51.643 40.0003L50.0515 40.5222L61.342 46.8939C63.1834 47.9331 65.4787 47.9024 67.2887 46.8141L71.4859 44.29C72.0776 43.9341 72.3731 43.3461 72.375 42.7578C72.3769 42.1897 72.1049 41.6212 71.5615 41.2612L71.4512 41.1931L70.7363 40.7834V42.1966L70.7982 42.2321L70.8701 42.2794C71.2032 42.5333 71.1851 43.039 70.81 43.2646L66.6128 45.7881Z" fill="#B37ABC"/>
<path fill-rule="evenodd" clip-rule="evenodd" d="M71.4859 44.29L67.2887 46.8141C65.4787 47.9024 63.1834 47.9331 61.342 46.8939L50.0515 40.5222C49.4153 41.7509 48.5245 45.0296 50.0515 48.3145L61.342 54.6863C63.1834 55.7255 65.4787 55.6948 67.2887 54.6064L71.4859 52.0823C72.0815 51.7242 72.377 51.1308 72.375 50.5386V42.7578C72.3731 43.3461 72.0776 43.9341 71.4859 44.29ZM52.8579 44.0496C53.8792 44.6128 54.7071 45.9824 54.7071 47.1087C54.7071 48.235 53.8792 48.6916 52.8579 48.1284C51.8366 47.5652 51.0087 46.1956 51.0087 45.0693C51.0087 43.943 51.8366 43.4865 52.8579 44.0496Z" fill="#733EA1"/>
<path d="M54.7071 47.1087C54.7071 45.9824 53.8792 44.6128 52.8579 44.0496C51.8366 43.4865 51.0087 43.943 51.0087 45.0693C51.0087 46.1956 51.8366 47.5652 52.8579 48.1284C53.8792 48.6916 54.7071 48.235 54.7071 47.1087Z" fill="white"/>
<mask id="mask0_1_377" style="mask-type:alpha" maskUnits="userSpaceOnUse" x="44" y="14" width="14" height="18">
<path d="M58 31.5L44.5 23.5V14H58V31.5Z" fill="#D9D9D9"/>
</mask>
<g mask="url(#mask0_1_377)">
<path d="M52.331 15.6888C51.3587 15.0507 50.5613 14.8975 49.9182 15.0602C48.9605 15.3025 47.9045 15.9733 47.9045 15.9733C47.9045 15.9733 47.6619 18.8827 47.6619 19.5798C47.6619 21.9788 48.9945 27.4629 52.331 29.6961C52.4857 29.7997 53.3244 31.0177 53.3244 31.0177C53.3244 31.0177 54.1959 30.6674 54.7503 30.4925C56.2947 30.0052 57.0001 27.4432 57.0001 25.8052C57.0001 23.471 55.7423 17.9278 52.331 15.6888Z" fill="#FDC534"/>
<path d="M50.6691 16.4932C47.2578 14.2543 46 17.9851 46 20.3841C46 22.7832 47.3327 28.2673 50.6691 30.5005C54.0055 32.7338 55.3382 28.9438 55.3382 26.6096C55.3382 24.2754 54.0804 18.7322 50.6691 16.4932Z" fill="#FCB22B"/>
<path d="M50.6688 18.6813C48.3237 17.1421 47.459 19.707 47.459 21.3562C47.459 23.0055 48.3751 26.7756 50.6688 28.3109C52.9625 29.8462 53.8787 27.2407 53.8787 25.636C53.8787 24.0313 53.014 20.2206 50.6688 18.6813Z" fill="#FCB22B"/>
<mask id="mask1_1_377" style="mask-type:alpha" maskUnits="userSpaceOnUse" x="47" y="18" width="7" height="11">
<path d="M50.6697 18.6803C48.3245 17.1411 47.4598 19.7059 47.4598 21.3552C47.4598 23.0044 48.376 26.7746 50.6697 28.3098C52.9634 29.8451 53.8795 27.2397 53.8795 25.635C53.8795 24.0303 53.0149 20.2195 50.6697 18.6803Z" fill="#FDC534"/>
</mask>
<g mask="url(#mask1_1_377)">
<path d="M51.1882 18.1969C48.8431 16.6577 47.9784 19.2226 47.9784 20.8718C47.9784 22.5211 48.8945 26.2912 51.1882 27.8265C53.4819 29.3618 54.3981 26.7563 54.3981 25.1516C54.3981 23.5469 53.5334 19.7361 51.1882 18.1969Z" fill="#FDC534"/>
</g>
</g>
</svg>
