<svg width="48" height="56" viewBox="0 0 48 56" fill="none" xmlns="http://www.w3.org/2000/svg">
<path d="M30.4231 48.0553V25.8705C30.4231 25.1322 30.0417 24.4474 29.4172 24.0643L10.0465 12.1844C9.39074 11.7822 9.05464 11.1047 9.04105 10.421L9 34.7866C9 35.7244 9.49206 36.5918 10.2928 37.0656L29.6366 48.5111C29.8208 48.6201 30.03 48.6005 30.1863 48.4975C30.3257 48.4057 30.4231 48.2476 30.4231 48.0553Z" fill="#B37ABC"/>
<path d="M30.4231 25.8705V48.0553C30.4231 48.2476 30.3257 48.4057 30.1863 48.4975L31.2302 47.8123C31.3786 47.7149 31.4681 47.5482 31.4681 47.3693V46.0716V25.3336C31.4681 24.6 31.0916 23.9189 30.4735 23.5344L11.8624 11.9578L11.0901 11.4773C10.1847 11.0198 10.1358 9.73218 11.0038 9.20578L11.1054 9.14414C12.2273 8.4637 13.6234 8.44087 14.7666 9.08426L34.8362 20.3801C35.4988 20.753 35.9095 21.4594 35.9095 22.2259V44.8207C35.9095 45.006 35.8198 45.1584 35.6897 45.2513L36.7001 44.6409C36.8579 44.5455 36.9545 44.3734 36.9545 44.1875V21.4363C36.9545 20.6684 36.5423 19.9609 35.8778 19.5886L15.6362 8.24655C13.9615 7.30814 11.9131 7.37085 10.2976 8.40998L10.0086 8.59591C9.3487 9.02037 9.02719 9.7239 9.04105 10.421C9.05464 11.1047 9.39074 11.7822 10.0465 12.1844L29.4172 24.0643C30.0417 24.4474 30.4231 25.1322 30.4231 25.8705Z" fill="#733EA1"/>
<path d="M35.9095 44.8207V22.2259C35.9095 21.4594 35.4988 20.753 34.8362 20.3801L14.7666 9.08426C13.6234 8.44087 12.2273 8.4637 11.1054 9.14414L11.0038 9.20578C10.1358 9.73218 10.1847 11.0198 11.0901 11.4773C10.5675 10.9492 10.8684 10.1341 11.3513 9.89286C12.3304 9.39801 13.4896 9.4313 14.4394 9.98155L34.342 21.5123V44.4872L35.0596 45.2217C35.0846 45.2472 35.1116 45.2709 35.143 45.2878C35.3006 45.373 35.4764 45.3658 35.6199 45.2935L35.6897 45.2513C35.8198 45.1584 35.9095 45.006 35.9095 44.8207Z" fill="#B37ABC"/>
<path d="M34.342 21.5123L14.4394 9.98155C13.4896 9.4313 12.3304 9.39801 11.3513 9.89286C10.8684 10.1341 10.5675 10.9492 11.0901 11.4773L11.8624 11.9578L30.4735 23.5344L31.8504 22.8147L33.2273 22.095L34.342 21.5123Z" fill="#00E2AE"/>
<path d="M34.342 44.4872V21.5123L33.2273 22.095L31.8504 22.8147L30.4735 23.5344C31.0916 23.9189 31.4681 24.6 31.4681 25.3336V46.0716L31.8504 45.8609L33.2273 45.1017L34.342 44.4872Z" fill="#01B088"/>
<path d="M33.4851 32.9731C32.296 33.6881 30.788 33.7088 29.5783 33.0261L20.8405 28.0843L19.4962 28.5251L29.033 33.9072C30.5883 34.7849 32.5271 34.759 34.056 33.8397L37.6012 31.7077C38.101 31.4071 38.3506 30.9104 38.3522 30.4135C38.3538 29.9336 38.1241 29.4534 37.665 29.1493L37.5719 29.0919L36.968 28.7458V29.9395L37.0203 29.9695L37.081 30.0094C37.3624 30.2239 37.3471 30.651 37.0303 30.8416L33.4851 32.9731Z" fill="#B37ABC"/>
<path fill-rule="evenodd" clip-rule="evenodd" d="M37.6012 31.7077L34.056 33.8397C32.5271 34.759 30.5883 34.7849 29.033 33.9072L19.4962 28.5251C18.9588 29.563 18.2064 32.3324 19.4962 35.1071L29.033 40.4891C30.5883 41.3669 32.5271 41.341 34.056 40.4217L37.6012 38.2896C38.1043 37.9871 38.3539 37.4859 38.3522 36.9857V30.4135C38.3506 30.9104 38.101 31.4071 37.6012 31.7077ZM21.8667 31.5047C22.7294 31.9803 23.4287 33.1372 23.4287 34.0886C23.4287 35.0399 22.7294 35.4256 21.8667 34.9499C21.004 34.4742 20.3047 33.3173 20.3047 32.366C20.3047 31.4146 21.004 31.029 21.8667 31.5047Z" fill="#733EA1"/>
<path d="M23.4287 34.0886C23.4287 33.1372 22.7294 31.9803 21.8667 31.5047C21.004 31.029 20.3047 31.4146 20.3047 32.366C20.3047 33.3173 21.004 34.4742 21.8667 34.9499C22.7294 35.4256 23.4287 35.0399 23.4287 34.0886Z" fill="white"/>
</svg>
