<svg width="64" height="64" viewBox="0 0 64 64" fill="none" xmlns="http://www.w3.org/2000/svg">
<path d="M1.00012 55C1.00012 57.7614 10.4022 60 22.0001 60C33.5981 60 43.0001 57.7614 43.0001 55C43.0001 52.2386 33.5981 50 22.0001 50C10.4021 50 1.00012 52.2386 1.00012 55Z" fill="#EBE9F4"/>
<path d="M56.9274 34.7049C52.9789 48.675 41.7177 60 31.775 60C29.7345 60 27.9081 59.523 26.328 58.6441C25.1286 57.9769 24.0705 57.0776 23.169 55.98C22.8718 55.618 22.5914 55.2344 22.3286 54.8304C21.6084 53.7233 21.0193 52.4627 20.5719 51.0729C20.4222 50.6082 20.2884 50.129 20.1708 49.6363C19.8505 48.294 19.6505 46.8513 19.5786 45.3263C19.5548 44.8194 19.5451 44.3035 19.5498 43.7791C19.564 42.21 19.7075 40.5655 19.9882 38.8637C20.0793 38.311 20.1849 37.7523 20.3052 37.1882C20.4795 36.3712 20.6846 35.5428 20.9215 34.7049C21.1949 33.7375 21.5034 32.7829 21.844 31.8438C22.0465 31.2855 22.2604 30.7327 22.4851 30.1861C23.227 28.3809 24.0865 26.6422 25.0417 24.992C25.3456 24.4671 25.6591 23.9511 25.9817 23.4448C26.9958 21.8529 28.0988 20.3563 29.2692 18.9768C29.6262 18.556 29.9895 18.146 30.3585 17.7476C31.6423 16.3613 32.9944 15.1145 34.3889 14.0332C34.7494 13.7538 35.1126 13.4854 35.4782 13.2285C36.8329 12.2768 38.2203 11.4831 39.6176 10.8703C40.0164 10.6954 40.416 10.5352 40.8159 10.3903C42.1262 9.91554 43.4396 9.60467 44.7374 9.47645C45.185 9.43222 45.6308 9.40972 46.0739 9.40972C47.9382 9.40972 49.6237 9.80787 51.106 10.5469C57.5292 13.7496 60.1356 23.3541 56.9274 34.7049Z" fill="#422791"/>
<path d="M56.9274 34.7049C52.9789 48.675 41.7177 60 31.775 60C29.7345 60 27.9081 59.523 26.328 58.6441C25.1286 57.9769 24.0705 57.0776 23.169 55.98C22.8718 55.618 22.5914 55.2344 22.3286 54.8304C21.6084 53.7233 21.0193 52.4627 20.5719 51.0729C20.4222 50.6082 20.2884 50.129 20.1708 49.6363C19.8505 48.294 19.6505 46.8513 19.5786 45.3263C19.5548 44.8194 19.5451 44.3035 19.5498 43.7791C19.564 42.21 19.7075 40.5655 19.9882 38.8637C20.0793 38.311 20.1849 37.7523 20.3052 37.1882C20.4795 36.3712 20.6846 35.5428 20.9215 34.7049C21.1949 33.7375 21.5034 32.7829 21.844 31.8438C22.0465 31.2855 22.2604 30.7327 22.4851 30.1861C23.227 28.3809 24.0865 26.6422 25.0417 24.992C25.3456 24.4671 25.6591 23.9511 25.9817 23.4448C26.9958 21.8529 28.0988 20.3563 29.2692 18.9768C29.6262 18.556 29.9895 18.146 30.3585 17.7476C31.6423 16.3613 32.9944 15.1145 34.3889 14.0332C34.7494 13.7538 35.1126 13.4854 35.4782 13.2285C36.8329 12.2768 38.2203 11.4831 39.6176 10.8703C40.0164 10.6954 40.416 10.5352 40.8159 10.3903C42.1262 9.91554 43.4396 9.60467 44.7374 9.47645C45.185 9.43222 45.6308 9.40972 46.0739 9.40972C47.9382 9.40972 49.6237 9.80787 51.106 10.5469C51.1255 10.5566 51.1449 10.5664 51.1643 10.5762C57.545 13.8078 60.1259 23.3885 56.9274 34.7049Z" fill="#6743B4"/>
<path d="M53.0784 34.7049C49.9741 45.6882 41.1205 54.592 33.3035 54.592C25.4865 54.592 21.6661 45.6882 24.7705 34.7049C27.8748 23.7215 36.7283 14.8178 44.5454 14.8178C52.3624 14.8178 56.1828 23.7215 53.0784 34.7049Z" fill="#422791"/>
<path d="M51.4193 34.9785C48.7046 44.5833 40.9623 52.3694 34.1265 52.3694C27.2906 52.3694 23.9498 44.5833 26.6645 34.9785C29.3792 25.3738 37.1214 17.5876 43.9573 17.5876C50.7931 17.5876 54.134 25.3738 51.4193 34.9785Z" fill="#9E75E5"/>
<path d="M36.4825 29.7785L37.2213 22.452C37.2699 21.9709 36.7444 21.7661 36.2933 22.1127C35.4864 22.7327 34.7021 23.4422 33.9532 24.228C31.9933 26.2847 30.2766 28.8646 29.0362 31.7332C28.8569 32.1481 28.6874 32.569 28.5287 32.9953C28.3722 33.4154 28.6765 33.7411 29.1246 33.6484L33.6545 32.7107C35.1018 32.4111 36.3472 31.1198 36.4825 29.7785Z" fill="#6743B4"/>
<path d="M43.4747 19.2951C43.0832 19.2951 42.6884 19.3235 42.2917 19.3787C42.1354 19.4005 41.9897 19.4739 41.8722 19.5769C41.6996 19.7281 41.5878 19.943 41.5922 20.1516L41.7344 26.7602L41.7392 26.9844C41.7654 28.1988 43.2028 28.6066 44.3933 27.7375L49.4447 24.0496C49.7454 23.83 49.883 23.4706 49.7513 23.2191C48.4735 20.777 46.3067 19.2951 43.4747 19.2951Z" fill="#6743B4"/>
<path d="M50.204 34.9785C50.762 33.0044 51.0363 31.1155 51.0542 29.3755C51.0592 28.8991 50.479 28.7729 50.04 29.1423L45.2826 33.145C44.0164 34.2104 43.5119 35.7927 44.0785 36.9217L46.3465 41.4416C46.5465 41.8401 47.2093 41.7446 47.4946 41.2645C48.6384 39.3401 49.5722 37.2139 50.204 34.9785Z" fill="#6743B4"/>
<path d="M34.6091 50.662C37.4328 50.662 40.428 49.1887 43.0805 46.7595C43.3513 46.5115 43.4199 46.1571 43.2511 45.9359L40.294 42.063C39.9002 41.5472 39.0702 41.6054 38.4612 42.063C38.2454 42.2252 38.0573 42.4375 37.9262 42.6922L36.257 45.9359L34.2065 49.9208C34.0141 50.2946 34.18 50.6601 34.5726 50.6619C34.5847 50.6619 34.5969 50.662 34.6091 50.662Z" fill="#6743B4"/>
<path d="M33.876 41.6555L30.988 48.4367C30.794 48.8923 30.2049 49.1293 29.9085 48.8504C29.2677 48.2473 28.7247 47.5078 28.2888 46.6537C27.3633 44.84 26.9209 42.5095 27.0508 39.8701C27.0696 39.4875 27.4684 39.1274 27.8737 39.1161L30.7942 39.0348L32.1854 38.9961C33.6797 38.9545 34.4861 40.223 33.876 41.6555Z" fill="#6743B4"/>
<path d="M41.7301 34.8565C41.148 36.9157 39.4881 38.585 38.0225 38.585C36.5569 38.585 35.8407 36.9157 36.4227 34.8565C37.0047 32.7972 38.6646 31.1279 40.1302 31.1279C41.5958 31.1279 42.3121 32.7972 41.7301 34.8565Z" fill="#422791"/>
<path d="M40.4247 28.9351C40.1715 29.8311 39.4492 30.5574 38.8115 30.5574C38.1738 30.5574 37.8622 29.8311 38.1154 28.9351C38.3686 28.0391 39.0909 27.3127 39.7286 27.3127C40.3663 27.3127 40.678 28.0391 40.4247 28.9351Z" fill="#422791"/>
<path d="M44.7819 31.1453C44.5287 32.0414 43.8064 32.7677 43.1687 32.7677C42.531 32.7677 42.2194 32.0414 42.4726 31.1453C42.7259 30.2493 43.4481 29.523 44.0858 29.523C44.7235 29.523 45.0352 30.2493 44.7819 31.1453Z" fill="#422791"/>
<path d="M42.8212 38.4392C42.5679 39.3352 41.8457 40.0615 41.208 40.0615C40.5703 40.0615 40.2586 39.3352 40.5119 38.4392C40.7651 37.5432 41.4874 36.8168 42.1251 36.8168C42.7628 36.8168 43.0744 37.5432 42.8212 38.4392Z" fill="#422791"/>
<path d="M37.5925 40.6494C37.3393 41.5454 36.617 42.2718 35.9793 42.2718C35.3416 42.2718 35.0299 41.5454 35.2832 40.6494C35.5364 39.7534 36.2587 39.0271 36.8964 39.0271C37.5341 39.0271 37.8457 39.7534 37.5925 40.6494Z" fill="#422791"/>
<path d="M35.6317 35.5658C35.3785 36.4618 34.6562 37.1882 34.0185 37.1882C33.3808 37.1882 33.0692 36.4618 33.3224 35.5658C33.5757 34.6698 34.2979 33.9435 34.9356 33.9435C35.5733 33.9435 35.885 34.6698 35.6317 35.5658Z" fill="#422791"/>
<path d="M46.0739 9.40972C47.9382 9.40972 49.6237 9.80787 51.106 10.5469C51.1255 10.5566 51.1449 10.5664 51.1643 10.5762L44.3933 7.06614C29.7792 4.50153 18.0493 19.5769 14.4546 33.2804C11.5788 44.2433 15.798 51.7838 18.2672 54.1838L26.328 58.6441C25.1286 57.9769 24.0705 57.0776 23.169 55.98L18.7029 53.6147L18.0493 52.6201L22.3286 54.8304C21.6084 53.7233 21.0193 52.4627 20.5719 51.0729L16.1975 48.6417L15.8707 47.426L20.1708 49.6363C19.8505 48.294 19.6505 46.8513 19.5786 45.3263L15.2171 42.895L15.1082 41.2373L19.5498 43.7791C19.564 42.21 19.7075 40.5655 19.9882 38.8637L15.5439 36.2643L15.8707 34.6066L20.3052 37.1882C20.4795 36.3712 20.6846 35.5428 20.9215 34.7049C21.1949 33.7375 21.5034 32.7829 21.844 31.8438L17.3957 29.302L18.0493 27.7548L22.4851 30.1861C23.227 28.3809 24.0865 26.6422 25.0417 24.992L20.7726 22.452L21.644 21.0135L25.9817 23.4448C26.9958 21.8529 28.0988 20.3563 29.2692 18.9768L25.1298 16.4825L26.2191 15.2669L30.3585 17.7476C31.6423 16.3613 32.9944 15.1145 34.3889 14.0332L30.3585 11.7305L31.4478 10.8703L35.4782 13.2285C36.8329 12.2768 38.2203 11.4831 39.6176 10.8703L35.805 8.74665L37.0033 8.19409L40.8159 10.3903C42.1262 9.91554 43.4396 9.60467 44.7374 9.47645L41.3605 7.4205H42.7766L46.0739 9.40972Z" fill="#513095"/>
<path d="M10.4846 48.8504C11.3668 49.9654 12.4043 50.8898 13.5831 51.5919L17.6136 53.8221C8.17634 44.3044 13.2563 25.434 23.4809 14.2723C31.6605 5.34286 40.116 5.37712 43.3213 6.51043L38.4194 3.96929C37.5083 3.56478 36.5262 3.28065 35.4782 3.12874L38.7462 5.09974L37.5479 5.32076L33.6554 3C32.1395 3 30.595 3.25437 29.0513 3.73377L32.8639 5.87332L31.7746 6.42589L27.6872 4.21564C26.2692 4.77669 24.8594 5.52106 23.4809 6.42589L27.5263 8.74665L26.328 9.63075L22.2126 7.30999C20.8509 8.31528 19.528 9.47501 18.2672 10.7661L22.2976 13.0566L21.2083 14.2723L17.1599 11.9515C15.9177 13.3413 14.7468 14.8598 13.6718 16.4825L17.6136 18.8033L16.7421 20.2399L12.7619 17.9192C11.7457 19.5984 10.8323 21.3747 10.0461 23.2238L14.1278 25.434L13.4742 27.0917L9.44374 24.7208C9.0271 25.8177 8.65569 26.9371 8.33432 28.0741C8.14391 28.7478 7.97457 29.4153 7.82587 30.0756L11.9492 32.2858L11.6224 33.9435L7.51253 31.6227C7.19641 33.3826 7.02979 35.0838 7.00384 36.7063L11.0777 39.0271V40.4637L7.01817 38.143C7.07842 39.7904 7.28996 41.3451 7.64267 42.7845L11.7313 44.9947L12.0581 46.3209L7.98269 44.0001C8.43484 45.4308 9.03756 46.7288 9.77936 47.8681L13.801 49.9678L14.3456 50.8519L10.4846 48.8504Z" fill="#513095"/>
<path d="M46.0739 9.40972L42.7766 7.4205H41.3605L44.7374 9.47645C45.185 9.43222 45.6308 9.40972 46.0739 9.40972Z" fill="#422791"/>
<path d="M40.8159 10.3903L37.0033 8.19409L35.805 8.74665L39.6176 10.8703C40.0164 10.6954 40.416 10.5352 40.8159 10.3903Z" fill="#422791"/>
<path d="M35.4782 13.2285L31.4478 10.8703L30.3585 11.7305L34.3889 14.0332C34.7494 13.7538 35.1126 13.4854 35.4782 13.2285Z" fill="#422791"/>
<path d="M30.3585 17.7476L26.2191 15.2669L25.1298 16.4825L29.2692 18.9768C29.6262 18.556 29.9895 18.146 30.3585 17.7476Z" fill="#422791"/>
<path d="M25.9817 23.4448L21.644 21.0135L20.7726 22.452L25.0417 24.992C25.3456 24.4671 25.6591 23.9511 25.9817 23.4448Z" fill="#422791"/>
<path d="M22.4851 30.1861L18.0493 27.7548L17.3957 29.302L21.844 31.8438C22.0465 31.2855 22.2604 30.7327 22.4851 30.1861Z" fill="#422791"/>
<path d="M20.3052 37.1882L15.8707 34.6066L15.5439 36.2643L19.9882 38.8637C20.0793 38.311 20.1849 37.7523 20.3052 37.1882Z" fill="#422791"/>
<path d="M19.5498 43.7791L15.1082 41.2373L15.2171 42.895L19.5786 45.3263C19.5548 44.8194 19.5451 44.3035 19.5498 43.7791Z" fill="#422791"/>
<path d="M20.1708 49.6363L15.8707 47.426L16.1975 48.6417L20.5719 51.0729C20.4222 50.6082 20.2884 50.129 20.1708 49.6363Z" fill="#422791"/>
<path d="M22.3286 54.8304L18.0493 52.6201L18.7029 53.6147L23.169 55.98C22.8718 55.618 22.5914 55.2344 22.3286 54.8304Z" fill="#422791"/>
<path d="M10.4846 48.8504L14.3456 50.8519L13.801 49.9678L9.77936 47.8681C10.002 48.21 10.2372 48.5377 10.4846 48.8504Z" fill="#422791"/>
<path d="M7.98269 44.0001L12.0581 46.3209L11.7313 44.9947L7.64267 42.7845C7.74436 43.1995 7.85778 43.6049 7.98269 44.0001Z" fill="#422791"/>
<path d="M7.01817 38.143L11.0777 40.4637V39.0271L7.00384 36.7063C6.99607 37.1924 7.00092 37.6715 7.01817 38.143Z" fill="#422791"/>
<path d="M7.51253 31.6227L11.6224 33.9435L11.9492 32.2858L7.82587 30.0756C7.70868 30.5959 7.60431 31.1118 7.51253 31.6227Z" fill="#422791"/>
<path d="M9.44374 24.7208L13.4742 27.0917L14.1278 25.434L10.0461 23.2238C9.83609 23.7178 9.63514 24.2169 9.44374 24.7208Z" fill="#422791"/>
<path d="M12.7619 17.9192L16.7421 20.2399L17.6136 18.8033L13.6718 16.4825C13.3602 16.9528 13.0567 17.4319 12.7619 17.9192Z" fill="#422791"/>
<path d="M17.1599 11.9515L21.2083 14.2723L22.2976 13.0566L18.2672 10.7661C17.8924 11.1498 17.5231 11.5452 17.1599 11.9515Z" fill="#422791"/>
<path d="M22.2126 7.30999L26.328 9.63075L27.5263 8.74665L23.4809 6.42589C23.0549 6.70549 22.6319 7.00042 22.2126 7.30999Z" fill="#422791"/>
<path d="M27.6872 4.21564L31.7746 6.42589L32.8639 5.87332L29.0513 3.73377C28.5963 3.87509 28.1413 4.03596 27.6872 4.21564Z" fill="#422791"/>
<path d="M33.6554 3L37.5479 5.32076L38.7462 5.09974L35.4782 3.12874C34.891 3.04361 34.2831 3 33.6554 3Z" fill="#422791"/>
<path d="M43.3213 6.51043C40.116 5.37712 31.6605 5.34286 23.4809 14.2723C13.2563 25.434 8.17634 44.3044 17.6136 53.8221L18.2672 54.1838C15.798 51.7838 11.5788 44.2433 14.4546 33.2804C18.0493 19.5769 29.7792 4.50153 44.3933 7.06614L43.3213 6.51043Z" fill="#422791"/>
</svg>
